<?xml version="1.0" encoding="utf-8"?>
<!-- Generator: Adobe Illustrator 15.1.0, SVG Export Plug-In . SVG Version: 6.00 Build 0)  -->
<!DOCTYPE svg PUBLIC "-//W3C//DTD SVG 1.1//EN" "http://www.w3.org/Graphics/SVG/1.1/DTD/svg11.dtd">
<svg version="1.1" id="Layer_1" xmlns="http://www.w3.org/2000/svg" xmlns:xlink="http://www.w3.org/1999/xlink" x="0px" y="0px"
	 width="91.5px" height="92.945px" viewBox="6.464 0 91.5 92.945" enable-background="new 6.464 0 91.5 92.945"
	 xml:space="preserve">
<g>
	<path fill="#F05A2B" d="M90.748,24.138c3.979,6.82,5.966,14.264,5.966,22.334c0,8.078-1.986,15.523-5.966,22.343
		s-9.38,12.211-16.199,16.191c-6.812,3.979-14.265,5.966-22.335,5.966s-15.523-1.986-22.335-5.966
		c-6.819-3.98-12.219-9.372-16.199-16.191S7.714,54.551,7.714,46.472c0-8.07,1.985-15.515,5.966-22.334
		c3.98-6.819,9.38-12.219,16.199-16.2c6.812-3.979,14.265-5.966,22.335-5.966s15.523,1.986,22.335,5.966
		C81.368,11.919,86.769,17.319,90.748,24.138z M84.841,37.836c0-1.808-0.777-3.161-2.323-4.056
		c-4.868-2.814-10.521-4.952-16.978-6.397c-6.447-1.454-13.072-2.172-19.875-2.172c-7.876,0-14.907,0.904-21.093,2.721
		c-0.887,0.271-1.631,0.761-2.23,1.479c-0.601,0.71-0.896,1.648-0.896,2.806c0,1.2,0.397,2.206,1.184,3.017
		c0.794,0.812,1.791,1.217,2.991,1.217c0.423,0,1.191-0.152,2.315-0.464c5.138-1.428,11.07-2.146,17.788-2.146
		c6.144,0,12.119,0.659,17.932,1.969c5.814,1.318,10.716,3.152,14.695,5.51c0.812,0.464,1.581,0.692,2.316,0.692
		c1.115,0,2.096-0.397,2.924-1.183C84.419,40.033,84.841,39.036,84.841,37.836z M78.579,52.211c0-1.547-0.676-2.722-2.027-3.533
		c-9.152-5.45-19.74-8.171-31.758-8.171c-5.906,0-11.763,0.812-17.551,2.434c-1.859,0.499-2.789,1.741-2.789,3.71
		c0,0.963,0.338,1.783,1.014,2.459c0.677,0.676,1.505,1.014,2.468,1.014c0.271,0,0.98-0.152,2.146-0.465
		c4.707-1.275,9.558-1.909,14.543-1.909c10.774,0,20.206,2.399,28.276,7.183c0.929,0.507,1.664,0.752,2.205,0.752
		c0.963,0,1.783-0.329,2.459-1.014C78.241,54.002,78.579,53.174,78.579,52.211z M73.019,64.666c0-1.233-0.582-2.213-1.74-2.949
		c-7.453-4.444-16.09-6.667-25.901-6.667c-5.138,0-10.681,0.659-16.63,1.969c-1.623,0.347-2.434,1.353-2.434,3.017
		c0,0.77,0.262,1.438,0.777,1.995c0.523,0.565,1.208,0.845,2.062,0.845c0.194,0,0.904-0.152,2.146-0.465
		c5.096-1.048,9.786-1.563,14.078-1.563c8.729,0,16.395,1.986,23.003,5.966c0.734,0.423,1.369,0.635,1.91,0.635
		c0.734,0,1.377-0.254,1.918-0.777C72.749,66.145,73.019,65.477,73.019,64.666z"/>
</g>
</svg>
