<?xml version="1.0" encoding="utf-8"?>
<!-- Generator: Adobe Illustrator 15.1.0, SVG Export Plug-In . SVG Version: 6.00 Build 0)  -->
<!DOCTYPE svg PUBLIC "-//W3C//DTD SVG 1.1//EN" "http://www.w3.org/Graphics/SVG/1.1/DTD/svg11.dtd">
<svg version="1.1" id="Layer_1" xmlns="http://www.w3.org/2000/svg" xmlns:xlink="http://www.w3.org/1999/xlink" x="0px" y="0px"
	 width="104.594px" height="92.945px" viewBox="0 0 104.594 92.945" enable-background="new 0 0 104.594 92.945"
	 xml:space="preserve">
<g opacity="0.15">
	<g>
		<path fill="#FFFFFF" d="M37.268,40.132v2.177c0,0.06-0.021,0.109-0.063,0.153c-0.043,0.042-0.096,0.063-0.154,0.063h-2.394
			c-0.059,0-0.108-0.021-0.152-0.063c-0.043-0.044-0.064-0.095-0.064-0.153v-2.177c0-0.059,0.021-0.106,0.064-0.15
			c0.044-0.046,0.094-0.066,0.152-0.066h0.218v-0.16c0-0.075,0.027-0.14,0.081-0.194c0.052-0.054,0.117-0.079,0.19-0.079h0.109
			c0.074,0,0.139,0.025,0.191,0.079c0.053,0.056,0.081,0.119,0.081,0.194v0.16h0.652v-0.16c0-0.075,0.024-0.14,0.078-0.194
			c0.055-0.054,0.119-0.079,0.192-0.079h0.109c0.074,0,0.139,0.025,0.192,0.079c0.054,0.056,0.08,0.119,0.08,0.194v0.16h0.217
			c0.059,0,0.111,0.021,0.154,0.066C37.246,40.025,37.268,40.074,37.268,40.132z M34.656,41.256h0.489v-0.412h-0.489V41.256z
			 M34.656,41.806h0.489v-0.46h-0.489V41.806z M34.656,42.308h0.489v-0.411h-0.489V42.308z M35.309,40.242v-0.487
			c0-0.019-0.004-0.029-0.017-0.041c-0.011-0.011-0.023-0.015-0.038-0.015h-0.109c-0.016,0-0.025,0.004-0.038,0.015
			c-0.009,0.012-0.017,0.022-0.017,0.041v0.487c0,0.016,0.007,0.027,0.017,0.038c0.013,0.012,0.022,0.018,0.038,0.018h0.109
			c0.015,0,0.027-0.006,0.038-0.018C35.305,40.269,35.309,40.257,35.309,40.242z M35.256,41.256h0.543v-0.412h-0.543V41.256z
			 M35.256,41.806h0.543v-0.46h-0.543V41.806z M35.256,42.308h0.543v-0.411h-0.543V42.308z M35.909,41.256h0.542v-0.412h-0.542
			V41.256z M35.909,41.806h0.542v-0.46h-0.542V41.806z M35.909,42.308h0.542v-0.411h-0.542V42.308z M36.615,40.242v-0.487
			c0-0.019-0.004-0.029-0.015-0.041c-0.013-0.011-0.023-0.015-0.04-0.015h-0.109c-0.014,0-0.027,0.004-0.038,0.015
			c-0.011,0.012-0.017,0.022-0.017,0.041v0.487c0,0.016,0.006,0.027,0.017,0.038c0.011,0.012,0.023,0.018,0.038,0.018h0.109
			c0.017,0,0.027-0.006,0.04-0.018C36.611,40.269,36.615,40.257,36.615,40.242z M36.56,41.256h0.489v-0.412H36.56V41.256z
			 M36.56,41.806h0.489v-0.46H36.56V41.806z M36.56,42.308h0.489v-0.411H36.56V42.308z"/>
	</g>
	<g>
		<path fill="#FFFFFF" d="M39.002,6.183c0.598,0,1.106,0.212,1.529,0.635c0.423,0.42,0.636,0.936,0.636,1.531v7.577
			c0,0.6-0.213,1.108-0.636,1.532c-0.423,0.423-0.932,0.635-1.529,0.635H27.09c-0.599,0-1.108-0.212-1.529-0.635
			c-0.425-0.424-0.638-0.934-0.638-1.532V8.349c0-0.597,0.213-1.111,0.638-1.531c0.421-0.423,0.931-0.635,1.529-0.635h1.896
			l0.431-1.15c0.108-0.275,0.303-0.516,0.585-0.713c0.288-0.2,0.578-0.303,0.878-0.303h4.333c0.296,0,0.588,0.103,0.874,0.303
			c0.284,0.197,0.479,0.438,0.586,0.713l0.435,1.15H39.002z M30.368,14.815c0.74,0.739,1.634,1.11,2.678,1.11
			c1.042,0,1.938-0.371,2.674-1.11c0.745-0.743,1.116-1.635,1.116-2.677c0-1.045-0.372-1.937-1.116-2.679
			c-0.737-0.741-1.633-1.111-2.674-1.111c-1.043,0-1.938,0.37-2.678,1.111c-0.741,0.742-1.112,1.634-1.112,2.679
			C29.256,13.181,29.627,14.072,30.368,14.815z M31.326,10.415c0.477-0.475,1.048-0.714,1.72-0.714s1.246,0.239,1.723,0.714
			c0.475,0.48,0.713,1.053,0.713,1.725c0,0.67-0.238,1.245-0.713,1.722c-0.478,0.475-1.051,0.711-1.723,0.711
			s-1.244-0.236-1.72-0.711c-0.479-0.477-0.715-1.052-0.715-1.722C30.61,11.468,30.847,10.896,31.326,10.415z"/>
	</g>
	<g>
		<path fill="#FFFFFF" d="M52.163,33.298c0.087,0,0.159,0.03,0.222,0.092c0.059,0.062,0.09,0.133,0.09,0.22v1.092
			c0,0.084-0.031,0.158-0.09,0.218c-0.062,0.06-0.135,0.093-0.222,0.093H50.45c-0.088,0-0.16-0.033-0.22-0.093
			c-0.063-0.06-0.093-0.134-0.093-0.218v-1.092c0-0.087,0.028-0.158,0.093-0.22c0.06-0.062,0.132-0.092,0.22-0.092h0.272
			l0.062-0.166c0.015-0.04,0.044-0.074,0.085-0.103c0.042-0.028,0.081-0.045,0.125-0.045h0.624c0.042,0,0.084,0.017,0.124,0.045
			c0.042,0.027,0.069,0.062,0.084,0.103l0.062,0.166H52.163z M50.921,34.537c0.104,0.107,0.233,0.163,0.384,0.163
			s0.278-0.056,0.386-0.163c0.105-0.105,0.16-0.233,0.16-0.384c0-0.151-0.055-0.277-0.16-0.386
			c-0.106-0.106-0.234-0.159-0.386-0.159c-0.149,0-0.278,0.053-0.384,0.159c-0.106,0.107-0.16,0.234-0.16,0.386
			C50.76,34.303,50.814,34.431,50.921,34.537z M51.059,33.906c0.065-0.069,0.148-0.104,0.245-0.104c0.098,0,0.181,0.034,0.249,0.104
			c0.067,0.069,0.103,0.149,0.103,0.247c0,0.096-0.034,0.179-0.103,0.247c-0.068,0.066-0.151,0.104-0.249,0.104
			c-0.097,0-0.18-0.036-0.245-0.104c-0.069-0.068-0.104-0.151-0.104-0.247C50.956,34.056,50.99,33.975,51.059,33.906z"/>
	</g>
	<g>
		<path fill="#FFFFFF" d="M53.658,57.196c0.368,0,0.673,0.128,0.938,0.388c0.248,0.26,0.38,0.562,0.38,0.93v4.619
			c0,0.355-0.132,0.67-0.38,0.922c-0.265,0.252-0.57,0.393-0.938,0.393h-7.247c-0.372,0-0.677-0.141-0.93-0.393
			c-0.269-0.252-0.392-0.566-0.392-0.922v-4.619c0-0.368,0.12-0.669,0.392-0.93c0.252-0.26,0.558-0.388,0.93-0.388h1.153l0.26-0.702
			c0.062-0.169,0.186-0.314,0.359-0.434c0.178-0.12,0.343-0.19,0.529-0.19h2.64c0.178,0,0.355,0.07,0.524,0.19
			c0.178,0.116,0.293,0.26,0.355,0.434l0.265,0.702H53.658z M48.403,62.439c0.442,0.454,0.987,0.689,1.624,0.689
			c0.636,0,1.177-0.235,1.632-0.689c0.446-0.447,0.678-0.988,0.678-1.624c0-0.641-0.231-1.173-0.678-1.632
			c-0.45-0.45-0.992-0.674-1.632-0.674c-0.632,0-1.178,0.224-1.624,0.674c-0.45,0.454-0.677,0.991-0.677,1.632
			C47.725,61.45,47.952,61.991,48.403,62.439z M48.99,59.769c0.277-0.293,0.628-0.442,1.037-0.442c0.413,0,0.764,0.145,1.053,0.442
			c0.285,0.293,0.434,0.632,0.434,1.045c0,0.405-0.145,0.756-0.434,1.045c-0.289,0.281-0.64,0.438-1.053,0.438
			c-0.409,0-0.76-0.153-1.037-0.438c-0.293-0.289-0.442-0.64-0.442-1.045C48.552,60.406,48.697,60.063,48.99,59.769z"/>
	</g>
	<path fill="#FFFFFF" d="M82.395,20.812c1.222,0,2.27,0.437,3.136,1.302c0.868,0.87,1.305,1.913,1.305,3.137v14.796
		c0,1.22-0.437,2.266-1.305,3.134c-0.866,0.87-1.914,1.304-3.136,1.304h-2.898v-9.172h3.067l0.46-3.573h-3.527v-2.28
		c0-0.574,0.12-1.003,0.363-1.289c0.243-0.293,0.71-0.438,1.411-0.438l1.878-0.015v-3.188c-0.646-0.096-1.56-0.14-2.741-0.14
		c-1.397,0-2.516,0.412-3.354,1.233c-0.836,0.82-1.254,1.98-1.254,3.482v2.633h-3.082v3.573H75.8v9.172h-8.2
		c-1.221,0-2.267-0.434-3.135-1.304c-0.87-0.868-1.304-1.914-1.304-3.134V25.25c0-1.224,0.434-2.267,1.304-3.137
		c0.869-0.865,1.915-1.302,3.135-1.302L82.395,20.812L82.395,20.812z"/>
	<path fill="#FFFFFF" d="M56.756,15.914c0.172,0,0.317,0.062,0.439,0.183c0.123,0.122,0.182,0.268,0.182,0.439v2.068
		c0,0.171-0.06,0.317-0.182,0.44c-0.122,0.121-0.268,0.182-0.439,0.182h-0.403v-1.283h0.427l0.066-0.5h-0.493v-0.318
		c0-0.08,0.016-0.141,0.048-0.181c0.036-0.04,0.102-0.061,0.198-0.061l0.264-0.002v-0.446c-0.09-0.012-0.218-0.021-0.385-0.021
		c-0.194,0-0.35,0.059-0.468,0.173c-0.117,0.113-0.176,0.277-0.176,0.487v0.368h-0.431v0.5h0.431v1.283h-1.148
		c-0.171,0-0.317-0.061-0.438-0.182c-0.121-0.123-0.184-0.27-0.184-0.44v-2.068c0-0.172,0.062-0.317,0.184-0.439
		c0.121-0.121,0.268-0.183,0.438-0.183H56.756z"/>
	<path fill="#FFFFFF" d="M23.867,12.456c0.179,0,0.332,0.064,0.46,0.19c0.125,0.126,0.188,0.279,0.188,0.457v2.16
		c0,0.177-0.063,0.332-0.188,0.458c-0.128,0.125-0.281,0.189-0.46,0.189h-0.422v-1.34h0.446l0.068-0.52h-0.516v-0.333
		c0-0.084,0.017-0.146,0.054-0.189c0.034-0.041,0.103-0.062,0.205-0.062l0.273-0.002v-0.464c-0.094-0.015-0.227-0.021-0.399-0.021
		c-0.204,0-0.366,0.062-0.49,0.18c-0.122,0.122-0.186,0.291-0.186,0.511v0.385h-0.447v0.52h0.447v1.34h-1.194
		c-0.177,0-0.33-0.064-0.456-0.189c-0.127-0.127-0.19-0.281-0.19-0.458v-2.16c0-0.177,0.063-0.33,0.19-0.457
		c0.126-0.126,0.279-0.19,0.456-0.19h2.16V12.456z"/>
	<path fill="#FFFFFF" d="M17.978,31.051c0.125,0,0.236,0.045,0.325,0.136c0.091,0.089,0.136,0.198,0.136,0.327v1.537
		c0,0.128-0.045,0.237-0.136,0.326c-0.089,0.089-0.199,0.137-0.325,0.137h-0.302v-0.956h0.318l0.047-0.37h-0.366V31.95
		c0-0.06,0.012-0.104,0.037-0.136c0.025-0.029,0.076-0.045,0.147-0.045h0.194v-0.332c-0.067-0.01-0.161-0.017-0.285-0.017
		c-0.146,0-0.26,0.045-0.349,0.129c-0.086,0.088-0.131,0.209-0.131,0.364v0.272h-0.32v0.37h0.32v0.956h-0.853
		c-0.127,0-0.234-0.048-0.326-0.137c-0.091-0.089-0.135-0.199-0.135-0.326v-1.537c0-0.129,0.044-0.238,0.135-0.327
		c0.092-0.092,0.199-0.136,0.326-0.136L17.978,31.051L17.978,31.051z"/>
	<g>
		<path fill="#FFFFFF" d="M10.125,9.205c0.381,0.478,0.571,0.998,0.571,1.56c0,0.564-0.19,1.087-0.571,1.564
			c-0.382,0.478-0.901,0.855-1.56,1.133c-0.66,0.275-1.376,0.415-2.148,0.415c-0.351,0-0.705-0.03-1.07-0.097
			c-0.502,0.357-1.066,0.616-1.691,0.778c-0.144,0.036-0.317,0.068-0.521,0.099H3.115c-0.044,0-0.087-0.016-0.125-0.049
			c-0.039-0.032-0.062-0.075-0.068-0.128c-0.005-0.015-0.009-0.026-0.009-0.04c0-0.015,0-0.026,0.004-0.039
			c0.003-0.013,0.006-0.025,0.013-0.037c0.005-0.014,0.011-0.021,0.014-0.029c0.005-0.009,0.011-0.021,0.021-0.034
			c0.011-0.016,0.018-0.022,0.024-0.028c0.005-0.007,0.016-0.017,0.027-0.031s0.021-0.021,0.022-0.027
			c0.021-0.021,0.068-0.074,0.142-0.151c0.072-0.075,0.125-0.138,0.158-0.18c0.032-0.043,0.075-0.103,0.137-0.177
			c0.058-0.075,0.109-0.151,0.152-0.232c0.041-0.083,0.084-0.172,0.125-0.27c-0.503-0.292-0.899-0.65-1.188-1.076
			c-0.288-0.424-0.431-0.878-0.431-1.362c0-0.562,0.189-1.082,0.571-1.56c0.381-0.479,0.9-0.858,1.561-1.137
			C4.925,7.793,5.64,7.654,6.416,7.654c0.772,0,1.489,0.139,2.148,0.415S9.743,8.724,10.125,9.205z M13.031,12.32
			c0,0.487-0.144,0.943-0.431,1.368c-0.289,0.419-0.685,0.777-1.188,1.07c0.041,0.098,0.083,0.188,0.124,0.268
			c0.043,0.083,0.096,0.16,0.153,0.235c0.06,0.074,0.104,0.133,0.138,0.174c0.032,0.045,0.083,0.104,0.156,0.181
			c0.073,0.077,0.12,0.13,0.139,0.153c0.006,0.004,0.014,0.012,0.026,0.025c0.012,0.015,0.021,0.025,0.027,0.03
			c0.005,0.005,0.013,0.016,0.022,0.031c0.011,0.015,0.017,0.024,0.021,0.033c0.004,0.007,0.009,0.019,0.016,0.029
			c0.006,0.015,0.01,0.024,0.012,0.037c0.003,0.013,0.003,0.026,0.003,0.04c0,0.013-0.003,0.027-0.006,0.039
			c-0.012,0.056-0.037,0.104-0.078,0.136c-0.041,0.029-0.086,0.044-0.134,0.041c-0.204-0.029-0.377-0.062-0.522-0.098
			c-0.624-0.163-1.189-0.423-1.69-0.779c-0.365,0.065-0.722,0.099-1.069,0.099c-1.099,0-2.056-0.269-2.871-0.804
			c0.235,0.018,0.414,0.025,0.536,0.025c0.652,0,1.278-0.092,1.879-0.274c0.6-0.184,1.134-0.444,1.604-0.782
			c0.506-0.376,0.896-0.806,1.167-1.29c0.271-0.485,0.408-1.001,0.408-1.546c0-0.312-0.048-0.618-0.141-0.925
			c0.522,0.29,0.936,0.65,1.24,1.083C12.879,11.356,13.031,11.824,13.031,12.32z"/>
	</g>
	<g>
		<path fill="#FFFFFF" d="M72.192,46.515c0.343,0.43,0.515,0.899,0.515,1.405c0,0.508-0.171,0.979-0.515,1.409
			c-0.344,0.43-0.812,0.771-1.404,1.021c-0.595,0.248-1.239,0.374-1.935,0.374c-0.315,0-0.635-0.027-0.964-0.087
			c-0.452,0.322-0.96,0.555-1.523,0.701c-0.129,0.032-0.286,0.062-0.47,0.088H65.88c-0.04,0-0.079-0.014-0.113-0.044
			c-0.035-0.029-0.056-0.067-0.062-0.115c-0.004-0.013-0.008-0.023-0.008-0.036c0-0.013,0-0.024,0.004-0.035
			c0.002-0.012,0.005-0.023,0.011-0.034c0.004-0.012,0.01-0.019,0.012-0.026c0.005-0.008,0.01-0.02,0.02-0.031
			c0.01-0.014,0.016-0.02,0.022-0.025c0.004-0.006,0.014-0.015,0.025-0.028c0.01-0.013,0.018-0.019,0.02-0.024
			c0.019-0.02,0.062-0.067,0.127-0.136c0.065-0.068,0.113-0.124,0.143-0.162c0.029-0.039,0.067-0.092,0.123-0.159
			c0.052-0.068,0.099-0.136,0.137-0.209c0.037-0.075,0.076-0.155,0.113-0.243c-0.453-0.263-0.81-0.585-1.07-0.969
			c-0.259-0.381-0.388-0.791-0.388-1.227c0-0.506,0.17-0.975,0.515-1.405c0.343-0.432,0.811-0.773,1.405-1.023
			c0.593-0.249,1.237-0.374,1.936-0.374c0.695,0,1.341,0.125,1.935,0.374C71.381,45.741,71.848,46.083,72.192,46.515z M74.81,49.321
			c0,0.439-0.129,0.85-0.388,1.232c-0.26,0.377-0.617,0.7-1.07,0.964c0.037,0.088,0.075,0.169,0.112,0.241
			c0.039,0.075,0.086,0.145,0.138,0.212c0.054,0.066,0.094,0.119,0.124,0.156c0.029,0.041,0.075,0.094,0.141,0.163
			c0.066,0.07,0.108,0.117,0.125,0.138c0.005,0.003,0.012,0.011,0.023,0.023c0.011,0.013,0.02,0.023,0.025,0.027
			c0.004,0.004,0.011,0.014,0.02,0.028c0.01,0.013,0.015,0.022,0.02,0.03c0.003,0.006,0.008,0.017,0.014,0.026
			c0.005,0.013,0.009,0.022,0.01,0.033c0.003,0.012,0.003,0.024,0.003,0.036c0,0.011-0.003,0.024-0.005,0.035
			c-0.011,0.05-0.034,0.093-0.07,0.122c-0.037,0.026-0.078,0.04-0.121,0.037c-0.184-0.026-0.339-0.055-0.471-0.088
			c-0.562-0.147-1.071-0.381-1.522-0.702c-0.329,0.059-0.649,0.088-0.963,0.088c-0.989,0-1.851-0.242-2.585-0.724
			c0.212,0.016,0.373,0.023,0.483,0.023c0.587,0,1.151-0.083,1.692-0.247c0.54-0.166,1.021-0.4,1.444-0.705
			c0.456-0.338,0.807-0.726,1.051-1.162c0.245-0.438,0.368-0.902,0.368-1.393c0-0.28-0.043-0.557-0.126-0.833
			c0.47,0.261,0.842,0.585,1.117,0.975C74.673,48.453,74.81,48.874,74.81,49.321z"/>
	</g>
	<g>
		<path fill="#FFFFFF" d="M24.637,19.609c0,0.664-0.184,1.27-0.548,1.819c0.068,0.244,0.101,0.501,0.101,0.769
			c0,0.573-0.141,1.106-0.424,1.605c0.021,0.157,0.034,0.317,0.034,0.479c0,0.751-0.224,1.413-0.67,1.986
			c0.008,1.035-0.309,1.85-0.946,2.448c-0.64,0.599-1.483,0.896-2.532,0.896H19.25h-1.036c-0.715,0-1.417-0.083-2.114-0.248
			c-0.693-0.171-1.499-0.414-2.413-0.732c-0.863-0.298-1.376-0.444-1.54-0.444H8.933c-0.394,0-0.729-0.14-1.009-0.42
			c-0.278-0.279-0.416-0.617-0.416-1.008v-7.141c0-0.393,0.138-0.729,0.416-1.008c0.279-0.278,0.615-0.417,1.009-0.417h3.056
			c0.271-0.177,0.778-0.754,1.527-1.727c0.433-0.56,0.832-1.034,1.192-1.431c0.18-0.185,0.312-0.501,0.398-0.953
			c0.085-0.449,0.199-0.918,0.34-1.41c0.141-0.49,0.372-0.894,0.691-1.203c0.288-0.274,0.625-0.414,1.002-0.414
			c0.625,0,1.185,0.121,1.685,0.363c0.498,0.241,0.876,0.62,1.136,1.131c0.261,0.516,0.393,1.204,0.393,2.074
			c0,0.692-0.182,1.404-0.539,2.139h1.966c0.772,0,1.442,0.287,2.005,0.851C24.353,18.18,24.637,18.845,24.637,19.609z
			 M10.151,26.548c0.141-0.142,0.21-0.31,0.21-0.502c0-0.193-0.07-0.36-0.21-0.501c-0.143-0.143-0.31-0.212-0.502-0.212
			c-0.194,0-0.36,0.069-0.501,0.212c-0.141,0.141-0.214,0.307-0.214,0.501c0,0.193,0.073,0.36,0.214,0.502s0.307,0.212,0.501,0.212
			C9.842,26.76,10.009,26.688,10.151,26.548z M23.208,19.62c0-0.376-0.144-0.71-0.434-0.995c-0.29-0.286-0.62-0.43-0.991-0.43
			h-3.926c0-0.432,0.176-1.024,0.534-1.779c0.356-0.752,0.536-1.351,0.536-1.789c0-0.729-0.121-1.267-0.356-1.616
			c-0.236-0.351-0.713-0.526-1.428-0.526c-0.192,0.195-0.334,0.514-0.422,0.95c-0.092,0.439-0.203,0.904-0.342,1.399
			c-0.138,0.496-0.359,0.902-0.663,1.222c-0.164,0.171-0.449,0.507-0.857,1.014c-0.031,0.037-0.116,0.149-0.257,0.334
			c-0.144,0.188-0.258,0.338-0.354,0.458c-0.091,0.119-0.218,0.278-0.384,0.473c-0.164,0.197-0.312,0.361-0.444,0.491
			c-0.133,0.13-0.277,0.264-0.431,0.396c-0.153,0.134-0.3,0.233-0.446,0.303c-0.145,0.065-0.275,0.098-0.396,0.098h-0.357v7.14
			h0.357c0.096,0,0.214,0.009,0.351,0.033c0.14,0.021,0.263,0.045,0.37,0.073c0.106,0.025,0.246,0.065,0.422,0.122
			s0.307,0.1,0.391,0.128c0.087,0.029,0.219,0.076,0.396,0.14c0.181,0.063,0.286,0.104,0.325,0.117
			c1.567,0.541,2.84,0.814,3.814,0.814h1.348c1.429,0,2.143-0.624,2.143-1.863c0-0.194-0.02-0.399-0.055-0.625
			c0.221-0.119,0.399-0.312,0.527-0.587c0.129-0.27,0.197-0.542,0.197-0.817c0-0.276-0.067-0.532-0.201-0.771
			c0.394-0.372,0.588-0.812,0.588-1.326c0-0.188-0.035-0.393-0.108-0.621c-0.076-0.227-0.168-0.4-0.279-0.526
			c0.237-0.008,0.437-0.185,0.597-0.526C23.13,20.182,23.208,19.883,23.208,19.62z"/>
	</g>
	<g>
		<path fill="#FFFFFF" d="M47.577,69.559c0,0.314-0.087,0.602-0.26,0.862c0.033,0.115,0.048,0.237,0.048,0.364
			c0,0.271-0.066,0.524-0.201,0.761c0.011,0.074,0.017,0.15,0.017,0.227c0,0.356-0.106,0.67-0.317,0.941
			c0.003,0.49-0.146,0.877-0.449,1.16c-0.303,0.284-0.703,0.425-1.2,0.425h-0.191h-0.491c-0.339,0-0.672-0.04-1.002-0.118
			c-0.329-0.081-0.71-0.196-1.144-0.347c-0.409-0.142-0.652-0.211-0.73-0.211h-1.522c-0.187,0-0.346-0.065-0.478-0.198
			c-0.132-0.133-0.197-0.293-0.197-0.479v-3.384c0-0.186,0.065-0.345,0.197-0.478c0.132-0.132,0.292-0.197,0.478-0.197h1.448
			c0.129-0.084,0.369-0.357,0.724-0.818c0.205-0.266,0.394-0.49,0.565-0.678c0.085-0.088,0.147-0.237,0.189-0.451
			c0.04-0.213,0.094-0.436,0.161-0.669c0.067-0.232,0.177-0.423,0.328-0.57c0.136-0.13,0.296-0.196,0.475-0.196
			c0.296,0,0.562,0.058,0.798,0.172c0.236,0.115,0.415,0.295,0.538,0.537c0.124,0.244,0.186,0.57,0.186,0.982
			c0,0.328-0.086,0.666-0.255,1.014h0.932c0.366,0,0.684,0.136,0.95,0.402C47.443,68.882,47.577,69.198,47.577,69.559z
			 M40.713,72.847c0.066-0.067,0.099-0.146,0.099-0.238c0-0.091-0.033-0.17-0.099-0.237c-0.068-0.067-0.147-0.1-0.238-0.1
			c-0.092,0-0.171,0.032-0.238,0.1c-0.066,0.067-0.101,0.146-0.101,0.237s0.035,0.171,0.101,0.238
			c0.067,0.067,0.146,0.101,0.238,0.101C40.566,72.948,40.645,72.913,40.713,72.847z M46.9,69.564c0-0.178-0.068-0.336-0.205-0.472
			c-0.138-0.135-0.294-0.203-0.47-0.203h-1.86c0-0.205,0.083-0.485,0.253-0.843c0.169-0.357,0.254-0.641,0.254-0.848
			c0-0.346-0.057-0.602-0.169-0.767c-0.112-0.166-0.338-0.249-0.676-0.249c-0.091,0.092-0.158,0.243-0.2,0.449
			c-0.043,0.209-0.096,0.43-0.162,0.664s-0.17,0.428-0.314,0.578c-0.078,0.082-0.213,0.24-0.406,0.48
			c-0.015,0.018-0.055,0.071-0.122,0.159c-0.068,0.089-0.123,0.16-0.167,0.217c-0.043,0.057-0.104,0.132-0.182,0.224
			c-0.078,0.094-0.148,0.172-0.21,0.233c-0.063,0.062-0.131,0.125-0.204,0.188c-0.073,0.063-0.142,0.11-0.211,0.144
			c-0.069,0.031-0.13,0.046-0.188,0.046H41.49v3.384h0.169c0.045,0,0.101,0.004,0.166,0.016c0.066,0.01,0.125,0.021,0.175,0.035
			c0.051,0.012,0.117,0.03,0.2,0.058c0.083,0.026,0.145,0.047,0.185,0.061c0.041,0.014,0.104,0.036,0.188,0.066
			c0.085,0.029,0.135,0.049,0.154,0.055c0.743,0.257,1.346,0.387,1.808,0.387h0.639c0.677,0,1.016-0.296,1.016-0.884
			c0-0.092-0.009-0.188-0.026-0.296c0.104-0.057,0.189-0.147,0.25-0.278c0.062-0.127,0.094-0.257,0.094-0.387
			c0-0.131-0.032-0.252-0.095-0.366c0.187-0.176,0.278-0.385,0.278-0.628c0-0.089-0.017-0.187-0.051-0.295
			c-0.036-0.106-0.08-0.189-0.132-0.249c0.112-0.004,0.207-0.088,0.283-0.249C46.863,69.83,46.9,69.689,46.9,69.564z"/>
	</g>
	<g>
		<path fill="#FFFFFF" d="M23.43,5.459V6.15c0,0.797-0.266,1.489-0.798,2.077c-0.531,0.59-1.188,0.927-1.968,1.013v0.715h1.383
			c0.093,0,0.173,0.034,0.241,0.101c0.068,0.068,0.104,0.151,0.104,0.244c0,0.095-0.036,0.175-0.104,0.244
			c-0.068,0.068-0.148,0.104-0.241,0.104h-3.457c-0.096,0-0.176-0.035-0.245-0.104c-0.07-0.068-0.103-0.147-0.103-0.244
			c0-0.093,0.032-0.176,0.103-0.244c0.068-0.065,0.148-0.101,0.245-0.101h1.382V9.24c-0.782-0.086-1.439-0.422-1.971-1.013
			c-0.53-0.588-0.794-1.28-0.794-2.077V5.459c0-0.094,0.032-0.175,0.1-0.243c0.068-0.066,0.15-0.102,0.245-0.102
			c0.091,0,0.173,0.035,0.242,0.102c0.067,0.068,0.102,0.149,0.102,0.243V6.15c0,0.666,0.238,1.237,0.71,1.71
			c0.477,0.475,1.044,0.71,1.713,0.71c0.665,0,1.235-0.235,1.707-0.71c0.475-0.474,0.713-1.044,0.713-1.71V5.459
			c0-0.094,0.034-0.175,0.103-0.243c0.067-0.066,0.148-0.102,0.242-0.102c0.095,0,0.176,0.035,0.244,0.102
			C23.395,5.284,23.43,5.365,23.43,5.459z M22.048,3.384V6.15c0,0.477-0.171,0.883-0.509,1.222c-0.338,0.336-0.748,0.507-1.22,0.507
			c-0.476,0-0.884-0.171-1.224-0.507c-0.338-0.339-0.505-0.746-0.505-1.222V3.384c0-0.475,0.167-0.883,0.505-1.22
			c0.34-0.34,0.748-0.51,1.224-0.51c0.473,0,0.882,0.17,1.22,0.51C21.877,2.501,22.048,2.909,22.048,3.384z"/>
	</g>
	<g>
		<path fill="#FFFFFF" d="M62.138,38.142v12.007c0,0.565-0.202,1.053-0.608,1.46c-0.408,0.405-0.893,0.608-1.462,0.608H48.063
			c-0.569,0-1.055-0.203-1.462-0.608c-0.407-0.407-0.612-0.896-0.612-1.46V38.142c0-0.568,0.206-1.055,0.612-1.461
			c0.407-0.407,0.893-0.61,1.462-0.61h12.005c0.569,0,1.054,0.203,1.462,0.61C61.937,37.088,62.138,37.574,62.138,38.142z
			 M60.308,49.717v-6.811h-1.417c0.139,0.44,0.21,0.9,0.21,1.375c0,0.885-0.224,1.697-0.672,2.445
			c-0.447,0.745-1.059,1.339-1.828,1.77c-0.772,0.435-1.613,0.653-2.524,0.653c-1.383,0-2.562-0.476-3.544-1.423
			c-0.981-0.952-1.472-2.1-1.472-3.445c0-0.476,0.07-0.936,0.209-1.375h-1.482v6.811c0,0.184,0.063,0.337,0.188,0.458
			c0.118,0.123,0.271,0.185,0.454,0.185h11.24c0.176,0,0.323-0.062,0.45-0.185C60.247,50.053,60.308,49.9,60.308,49.717z
			 M56.374,46.338c0.635-0.614,0.951-1.355,0.951-2.225c0-0.87-0.316-1.611-0.951-2.22c-0.633-0.616-1.399-0.922-2.297-0.922
			c-0.89,0-1.652,0.306-2.286,0.922c-0.637,0.608-0.953,1.35-0.953,2.22c0,0.868,0.315,1.609,0.953,2.225
			c0.634,0.613,1.396,0.921,2.286,0.921C54.974,47.258,55.741,46.95,56.374,46.338z M60.308,40.328v-1.732
			c0-0.198-0.069-0.367-0.207-0.511c-0.138-0.145-0.314-0.217-0.517-0.217h-1.829c-0.203,0-0.377,0.072-0.516,0.217
			c-0.139,0.144-0.212,0.312-0.212,0.511v1.732c0,0.206,0.074,0.377,0.212,0.516c0.139,0.142,0.312,0.212,0.516,0.212h1.829
			c0.201,0,0.378-0.07,0.517-0.212C60.239,40.705,60.308,40.533,60.308,40.328z"/>
	</g>
	<g>
		<path fill="#FFFFFF" d="M54.549,73.336v4.572c0,0.215-0.077,0.401-0.231,0.556c-0.156,0.154-0.34,0.232-0.557,0.232H49.19
			c-0.217,0-0.402-0.078-0.557-0.232c-0.155-0.154-0.233-0.341-0.233-0.556v-4.572c0-0.216,0.079-0.401,0.233-0.556
			c0.155-0.156,0.34-0.232,0.557-0.232h4.571c0.217,0,0.401,0.076,0.557,0.232C54.472,72.935,54.549,73.12,54.549,73.336z
			 M53.852,77.743V75.15h-0.54c0.053,0.168,0.08,0.344,0.08,0.523c0,0.338-0.085,0.646-0.256,0.932
			c-0.17,0.284-0.403,0.51-0.696,0.674c-0.294,0.166-0.614,0.249-0.961,0.249c-0.526,0-0.975-0.182-1.349-0.542
			c-0.374-0.362-0.561-0.8-0.561-1.312c0-0.18,0.027-0.355,0.08-0.523h-0.564v2.594c0,0.07,0.024,0.129,0.072,0.175
			c0.045,0.047,0.103,0.069,0.173,0.069h4.28c0.067,0,0.123-0.022,0.171-0.069C53.829,77.872,53.852,77.814,53.852,77.743z
			 M52.354,76.456c0.242-0.232,0.362-0.516,0.362-0.847s-0.12-0.613-0.362-0.845c-0.241-0.235-0.533-0.352-0.875-0.352
			c-0.338,0-0.629,0.116-0.871,0.352c-0.242,0.231-0.363,0.514-0.363,0.845s0.12,0.612,0.363,0.847
			c0.242,0.234,0.532,0.352,0.871,0.352C51.821,76.807,52.113,76.691,52.354,76.456z M53.852,74.169v-0.66
			c0-0.076-0.026-0.141-0.079-0.195c-0.052-0.055-0.12-0.082-0.197-0.082H52.88c-0.077,0-0.144,0.027-0.196,0.082
			s-0.081,0.119-0.081,0.195v0.66c0,0.078,0.028,0.143,0.081,0.195c0.053,0.055,0.119,0.081,0.196,0.081h0.696
			c0.077,0,0.144-0.026,0.197-0.081C53.826,74.312,53.852,74.247,53.852,74.169z"/>
	</g>
	<g>
		<path fill="#FFFFFF" d="M89.918,41.663l-0.007,1.733c0,0.082-0.029,0.152-0.089,0.213c-0.06,0.057-0.13,0.087-0.209,0.087
			l-1.736-0.008c-0.084,0-0.152-0.027-0.212-0.087c-0.061-0.061-0.089-0.13-0.088-0.212l0.007-1.734
			c0-0.084,0.028-0.154,0.089-0.211c0.06-0.059,0.13-0.09,0.212-0.09l1.735,0.008c0.08,0,0.149,0.028,0.209,0.088
			C89.887,41.51,89.918,41.582,89.918,41.663z M89.646,43.336l0.004-0.987h-0.206c0.022,0.065,0.03,0.131,0.03,0.199
			c0,0.13-0.033,0.245-0.099,0.354c-0.064,0.106-0.154,0.191-0.266,0.253c-0.11,0.063-0.232,0.097-0.365,0.095
			c-0.198,0-0.368-0.071-0.51-0.207c-0.142-0.14-0.212-0.306-0.212-0.5c0-0.066,0.012-0.135,0.031-0.197l-0.215-0.002l-0.005,0.984
			c0,0.025,0.011,0.049,0.026,0.067c0.019,0.017,0.041,0.024,0.066,0.024l1.624,0.006c0.024,0,0.048-0.008,0.065-0.024
			C89.638,43.383,89.646,43.361,89.646,43.336z M89.079,42.844c0.094-0.089,0.14-0.194,0.14-0.32c0-0.128-0.044-0.233-0.138-0.322
			c-0.091-0.088-0.199-0.135-0.33-0.135c-0.128,0-0.237,0.044-0.332,0.133c-0.09,0.088-0.138,0.195-0.138,0.321
			c0,0.124,0.045,0.231,0.137,0.321c0.092,0.089,0.2,0.133,0.328,0.133C88.875,42.975,88.989,42.932,89.079,42.844z M89.65,41.978
			l0.003-0.251c0-0.028-0.01-0.054-0.03-0.071c-0.021-0.022-0.046-0.032-0.075-0.032l-0.266-0.001c-0.027,0-0.051,0.008-0.072,0.03
			c-0.021,0.019-0.03,0.044-0.03,0.072l-0.002,0.25c0,0.03,0.011,0.058,0.031,0.073c0.019,0.023,0.046,0.031,0.073,0.031
			l0.266,0.001c0.027,0,0.055-0.008,0.074-0.028S89.65,42.007,89.65,41.978z"/>
	</g>
	<g>
		<path fill="#FFFFFF" d="M29.942,26.812v2.267c0,0.106-0.039,0.198-0.116,0.274c-0.076,0.076-0.167,0.115-0.271,0.115h-2.27
			c-0.106,0-0.197-0.039-0.275-0.115c-0.075-0.076-0.114-0.168-0.114-0.274v-2.267c0-0.108,0.039-0.2,0.114-0.275
			c0.078-0.076,0.169-0.116,0.275-0.116h2.27c0.104,0,0.195,0.04,0.271,0.116C29.903,26.611,29.942,26.704,29.942,26.812z
			 M29.598,28.997v-1.286h-0.271c0.027,0.084,0.041,0.17,0.041,0.261c0,0.167-0.044,0.319-0.128,0.461
			c-0.084,0.14-0.199,0.254-0.344,0.335c-0.147,0.081-0.306,0.122-0.479,0.122c-0.259,0-0.481-0.089-0.669-0.269
			c-0.186-0.18-0.275-0.396-0.275-0.649c0-0.091,0.014-0.176,0.039-0.261h-0.281v1.286c0,0.034,0.013,0.062,0.036,0.085
			c0.021,0.024,0.053,0.035,0.087,0.035h2.121c0.031,0,0.062-0.011,0.085-0.035C29.584,29.059,29.598,29.031,29.598,28.997z
			 M28.852,28.358c0.119-0.115,0.181-0.258,0.181-0.419c0-0.165-0.062-0.304-0.181-0.418c-0.117-0.118-0.26-0.176-0.433-0.176
			c-0.169,0-0.312,0.059-0.434,0.176c-0.117,0.114-0.179,0.254-0.179,0.418c0,0.162,0.062,0.304,0.179,0.419
			c0.121,0.116,0.265,0.174,0.434,0.174C28.593,28.532,28.735,28.474,28.852,28.358z M29.598,27.224v-0.328
			c0-0.036-0.017-0.068-0.041-0.096c-0.028-0.027-0.061-0.041-0.096-0.041h-0.347c-0.039,0-0.07,0.013-0.098,0.041
			c-0.027,0.026-0.041,0.06-0.041,0.096v0.328c0,0.038,0.014,0.072,0.041,0.097c0.025,0.027,0.059,0.041,0.098,0.041h0.347
			c0.035,0,0.066-0.014,0.096-0.041C29.583,27.296,29.598,27.262,29.598,27.224z"/>
	</g>
	<g>
		<path fill="#FFFFFF" d="M31.911,33.355c0.004,0.152,0.004,0.369,0.004,0.643c0,0.274,0,0.488-0.004,0.644
			c-0.002,0.153-0.014,0.347-0.032,0.583c-0.02,0.233-0.049,0.445-0.089,0.632c-0.042,0.207-0.132,0.384-0.27,0.526
			c-0.138,0.144-0.299,0.228-0.484,0.246c-0.577,0.072-1.45,0.109-2.618,0.109c-1.169,0-2.042-0.037-2.619-0.109
			c-0.184-0.02-0.348-0.104-0.485-0.246c-0.14-0.144-0.229-0.319-0.271-0.526c-0.037-0.187-0.065-0.397-0.083-0.632
			c-0.021-0.236-0.03-0.43-0.036-0.583c0-0.154,0-0.368,0-0.644c0-0.272,0-0.489,0-0.643c0.006-0.154,0.016-0.35,0.036-0.586
			c0.018-0.233,0.049-0.445,0.086-0.629c0.041-0.209,0.133-0.385,0.271-0.527c0.138-0.145,0.299-0.228,0.482-0.25
			c0.577-0.07,1.45-0.105,2.619-0.105c1.168,0,2.041,0.035,2.618,0.105c0.186,0.022,0.347,0.105,0.486,0.25
			c0.139,0.144,0.229,0.318,0.271,0.527c0.037,0.184,0.066,0.396,0.086,0.629C31.897,33.006,31.908,33.201,31.911,33.355z
			 M30.2,33.998c0-0.104-0.048-0.184-0.145-0.231l-2.451-1.369c-0.099-0.058-0.204-0.06-0.31-0.009
			c-0.105,0.052-0.16,0.131-0.16,0.237v2.741c0,0.109,0.054,0.188,0.16,0.24c0.05,0.022,0.101,0.034,0.147,0.034
			c0.063,0,0.117-0.015,0.162-0.043l2.451-1.366C30.153,34.18,30.2,34.103,30.2,33.998z"/>
	</g>
	<g>
		<path fill="#FFFFFF" d="M45.29,49.258c0.007,0.297,0.007,0.721,0.007,1.254c0,0.536,0,0.954-0.007,1.257
			c-0.004,0.299-0.027,0.677-0.063,1.139c-0.038,0.456-0.095,0.869-0.173,1.233c-0.082,0.404-0.257,0.75-0.526,1.028
			c-0.269,0.281-0.583,0.444-0.946,0.481c-1.127,0.141-2.832,0.213-5.112,0.213c-2.283,0-3.987-0.072-5.114-0.213
			c-0.358-0.038-0.679-0.202-0.948-0.481c-0.273-0.28-0.446-0.624-0.53-1.028c-0.073-0.364-0.128-0.776-0.162-1.233
			c-0.04-0.461-0.059-0.839-0.071-1.139c0-0.301,0-0.719,0-1.257c0-0.532,0-0.955,0-1.254c0.012-0.301,0.031-0.683,0.071-1.144
			c0.034-0.456,0.095-0.87,0.168-1.229c0.08-0.408,0.259-0.751,0.53-1.029c0.269-0.282,0.584-0.444,0.942-0.488
			c1.127-0.137,2.832-0.206,5.114-0.206c2.281,0,3.985,0.069,5.112,0.206c0.362,0.044,0.677,0.206,0.95,0.488
			c0.271,0.28,0.446,0.622,0.528,1.029c0.072,0.359,0.129,0.772,0.167,1.229C45.263,48.575,45.284,48.956,45.29,49.258z
			 M41.949,50.512c0-0.204-0.093-0.358-0.282-0.452l-4.786-2.673c-0.193-0.113-0.399-0.117-0.604-0.018
			c-0.206,0.102-0.313,0.256-0.313,0.464v5.353c0,0.213,0.105,0.368,0.313,0.469c0.097,0.043,0.196,0.066,0.288,0.066
			c0.124,0,0.229-0.028,0.317-0.084l4.786-2.667C41.858,50.869,41.949,50.718,41.949,50.512z"/>
	</g>
	<g>
		<path fill="#FFFFFF" d="M44.928,12.094c-0.036,0.047-0.092,0.112-0.154,0.194c-0.065,0.081-0.119,0.147-0.158,0.191
			c-0.038,0.046-0.089,0.101-0.152,0.165c-0.063,0.066-0.127,0.121-0.186,0.165c-0.065,0.052-0.142,0.076-0.225,0.079
			c-0.085,0.004-0.163-0.018-0.235-0.065c-0.225-0.146-0.545-0.388-0.963-0.728c-0.419-0.34-0.725-0.602-0.912-0.791
			c-0.062-0.062-0.103-0.134-0.116-0.217c-0.016-0.084-0.003-0.162,0.03-0.238c0.03-0.064,0.074-0.136,0.122-0.212
			c0.053-0.077,0.097-0.139,0.13-0.186c0.037-0.048,0.091-0.112,0.157-0.195c0.064-0.08,0.117-0.146,0.157-0.19
			c0.037-0.047,0.087-0.101,0.152-0.165c0.064-0.064,0.127-0.12,0.184-0.164c0.067-0.052,0.143-0.076,0.228-0.08
			c0.083-0.003,0.161,0.02,0.232,0.064c0.225,0.146,0.545,0.391,0.968,0.729c0.417,0.339,0.723,0.604,0.912,0.792
			c0.061,0.061,0.099,0.132,0.112,0.216c0.016,0.082,0.005,0.162-0.029,0.235c-0.032,0.066-0.072,0.14-0.123,0.216
			C45.006,11.986,44.965,12.05,44.928,12.094z M44.054,11.709c0.025-0.033,0.029-0.068,0.014-0.106l-0.403-1.007
			c-0.015-0.042-0.047-0.065-0.091-0.078c-0.045-0.009-0.079,0.003-0.105,0.035l-0.667,0.821c-0.024,0.032-0.028,0.069-0.01,0.112
			c0.008,0.018,0.021,0.032,0.036,0.045c0.021,0.017,0.038,0.024,0.058,0.026l1.071,0.186C43.995,11.751,44.028,11.74,44.054,11.709
			z"/>
	</g>
	<g>
		<path fill="#FFFFFF" d="M30.111,42.248c0.443,0.136,0.771,0.407,0.986,0.814c0.216,0.406,0.257,0.83,0.117,1.272
			c-0.136,0.442-0.406,0.771-0.813,0.985c-0.404,0.214-0.83,0.254-1.272,0.118c-0.44-0.137-0.771-0.408-0.986-0.813
			c-0.214-0.408-0.254-0.832-0.116-1.273c0.012-0.039,0.034-0.095,0.062-0.167l-1.518-1.45c-0.396,0.191-0.802,0.224-1.22,0.094
			c-0.441-0.136-0.771-0.407-0.985-0.813c-0.212-0.406-0.256-0.83-0.119-1.273c0.137-0.442,0.409-0.771,0.814-0.986
			c0.407-0.213,0.832-0.256,1.271-0.117c0.421,0.129,0.739,0.385,0.956,0.766l2.071-0.345c0.017-0.076,0.028-0.134,0.042-0.174
			c0.136-0.439,0.408-0.771,0.812-0.983c0.407-0.217,0.832-0.255,1.274-0.12c0.443,0.137,0.771,0.407,0.987,0.814
			c0.214,0.405,0.253,0.832,0.115,1.273c-0.136,0.441-0.406,0.771-0.812,0.985c-0.405,0.216-0.832,0.254-1.274,0.118
			c-0.418-0.129-0.732-0.384-0.95-0.765l-2.074,0.344c-0.018,0.076-0.028,0.133-0.042,0.174c-0.013,0.041-0.033,0.094-0.063,0.166
			l1.521,1.448C29.286,42.151,29.694,42.118,30.111,42.248z"/>
	</g>
	<g>
		<path fill="#FFFFFF" d="M42.128,61.36c0.432-0.169,0.857-0.159,1.279,0.026c0.421,0.186,0.716,0.492,0.881,0.926
			c0.168,0.432,0.16,0.856-0.027,1.277c-0.184,0.419-0.493,0.715-0.925,0.883c-0.43,0.165-0.857,0.157-1.278-0.026
			c-0.421-0.188-0.715-0.495-0.881-0.927c-0.015-0.038-0.032-0.096-0.055-0.169l-2.09-0.196c-0.192,0.396-0.49,0.673-0.899,0.83
			c-0.43,0.167-0.857,0.159-1.277-0.026c-0.418-0.188-0.715-0.493-0.883-0.925c-0.167-0.432-0.157-0.858,0.027-1.279
			c0.188-0.42,0.494-0.717,0.925-0.881c0.41-0.16,0.818-0.156,1.225,0.008l1.411-1.556c-0.034-0.07-0.061-0.123-0.075-0.162
			c-0.167-0.429-0.158-0.857,0.026-1.275c0.185-0.422,0.494-0.716,0.925-0.885c0.433-0.168,0.858-0.159,1.28,0.026
			c0.419,0.185,0.714,0.496,0.88,0.927c0.167,0.43,0.159,0.856-0.026,1.277c-0.184,0.42-0.495,0.715-0.926,0.883
			c-0.408,0.158-0.812,0.153-1.22-0.01l-1.414,1.556c0.034,0.071,0.06,0.122,0.075,0.163c0.016,0.039,0.032,0.094,0.053,0.169
			l2.091,0.192C41.421,61.796,41.72,61.517,42.128,61.36z"/>
	</g>
	<g>
		<path fill="#FFFFFF" d="M54.564,12.911c-0.416,1.347-1.036,2.576-1.869,3.691c0.062,0.153,0.143,0.39,0.241,0.705
			c0.459,1.475,0.699,3.009,0.729,4.605c0.025,1.599-0.19,3.209-0.647,4.829c-0.458,1.617-1.129,3.139-2.017,4.547
			c-0.889,1.41-2.091,2.694-3.606,3.847c-1.515,1.146-3.246,2.024-5.195,2.63c-3.062,0.955-6.127,1.012-9.184,0.165
			c0.409-0.076,0.859-0.191,1.345-0.345c2.546-0.794,4.569-2.278,6.074-4.465c-1.193,0.35-2.371,0.315-3.53-0.098
			c-1.159-0.417-2.085-1.114-2.778-2.104c0.391-0.062,0.747-0.139,1.061-0.234c0.487-0.152,0.95-0.367,1.385-0.638
			c-1.348,0.134-2.595-0.173-3.736-0.914c-1.145-0.742-1.923-1.772-2.334-3.1l-0.021-0.065c0.901,0.188,1.803,0.165,2.695-0.075
			c-0.905-0.268-1.699-0.733-2.393-1.396c-0.692-0.668-1.182-1.465-1.477-2.406c-0.309-0.994-0.351-1.998-0.117-2.998
			c1.895,1.258,3.982,2.089,6.262,2.487c2.278,0.401,4.556,0.306,6.831-0.278c-0.226-0.403-0.401-0.808-0.525-1.212
			c-0.475-1.516-0.345-2.977,0.394-4.378c0.734-1.404,1.862-2.341,3.377-2.812c1.583-0.494,3.1-0.336,4.544,0.479
			c1.158-0.621,2.185-1.421,3.067-2.406c-0.012,1.431-0.502,2.688-1.467,3.77C52.686,14.302,53.651,13.69,54.564,12.911z"/>
	</g>
	<g>
		<path fill="#FFFFFF" d="M88.747,46.865c-0.29,0.335-0.623,0.61-1.004,0.827c-0.001,0.052-0.008,0.13-0.019,0.233
			c-0.054,0.482-0.178,0.955-0.371,1.419c-0.194,0.463-0.459,0.899-0.795,1.309c-0.335,0.408-0.721,0.762-1.154,1.055
			c-0.434,0.294-0.942,0.513-1.524,0.653c-0.581,0.14-1.19,0.174-1.828,0.103c-1.002-0.11-1.892-0.481-2.665-1.11
			c0.127,0.029,0.271,0.054,0.43,0.069c0.833,0.094,1.603-0.079,2.312-0.52c-0.388-0.049-0.722-0.207-1.004-0.473
			c-0.281-0.267-0.459-0.584-0.534-0.957c0.12,0.032,0.232,0.055,0.334,0.067c0.16,0.018,0.32,0.014,0.479-0.01
			C81,49.4,80.679,49.154,80.445,48.797c-0.236-0.358-0.331-0.752-0.281-1.187l0.002-0.021c0.235,0.168,0.498,0.274,0.785,0.317
			c-0.227-0.19-0.397-0.425-0.513-0.703c-0.115-0.279-0.156-0.571-0.122-0.879c0.036-0.325,0.151-0.62,0.344-0.879
			c0.387,0.602,0.884,1.104,1.49,1.507c0.605,0.402,1.273,0.662,2.002,0.78c-0.014-0.145-0.014-0.283,0.001-0.415
			c0.054-0.496,0.276-0.9,0.665-1.212c0.389-0.312,0.832-0.438,1.328-0.384c0.518,0.058,0.935,0.294,1.248,0.711
			c0.412-0.033,0.808-0.134,1.187-0.306c-0.184,0.41-0.483,0.711-0.897,0.9C88.031,47.029,88.386,46.974,88.747,46.865z"/>
	</g>
	<g>
		<path fill="#FFFFFF" d="M43.766,36.148c0.011,0.013,0.017,0.054,0.016,0.12c-0.001,0.067-0.005,0.106-0.018,0.121
			c-0.006,0.005-0.023,0.01-0.047,0.011c-0.024,0.001-0.051,0.003-0.073,0.003s-0.049-0.002-0.081-0.002
			C43.531,36.4,43.514,36.4,43.511,36.4l-0.002,0.199l0.458,0.005c0.039,0,0.072,0.014,0.1,0.041
			c0.03,0.029,0.043,0.071,0.043,0.127c0,0.053-0.016,0.094-0.046,0.123c-0.027,0.027-0.062,0.041-0.101,0.041l-1.396-0.012
			c-0.036,0.213-0.118,0.385-0.249,0.515c-0.114,0.11-0.242,0.165-0.384,0.165c-0.144,0-0.271-0.059-0.382-0.173
			c-0.109-0.11-0.185-0.254-0.224-0.426c-0.039-0.173-0.037-0.345,0.005-0.517c0.042-0.173,0.118-0.312,0.231-0.424
			c0.114-0.113,0.24-0.168,0.384-0.165c0.143,0.001,0.27,0.059,0.382,0.171c0.129,0.134,0.209,0.308,0.238,0.52l0.74,0.007
			l0.002-0.198c-0.005,0-0.023,0-0.054,0C43.227,36.4,43.2,36.4,43.177,36.4c-0.024,0-0.048-0.001-0.071-0.006
			c-0.025-0.001-0.041-0.005-0.046-0.013c-0.014-0.012-0.02-0.052-0.019-0.119c0.002-0.068,0.008-0.106,0.021-0.119
			c0.009-0.011,0.019-0.014,0.033-0.014c0.008,0,0.039,0,0.095,0c0.055-0.001,0.11-0.001,0.168-0.001c0.057,0,0.116,0,0.179,0
			c0.062,0.001,0.116,0.003,0.157,0.007C43.736,36.137,43.759,36.143,43.766,36.148z M42.229,36.487
			c0-0.076-0.027-0.144-0.084-0.198c-0.054-0.057-0.119-0.085-0.198-0.086c-0.077,0-0.146,0.027-0.2,0.083
			c-0.056,0.054-0.084,0.119-0.085,0.198c0,0.077,0.027,0.145,0.082,0.198c0.029,0.03,0.062,0.055,0.105,0.067
			c-0.043,0.017-0.078,0.037-0.106,0.066c-0.056,0.056-0.086,0.12-0.086,0.199s0.027,0.144,0.083,0.202
			c0.056,0.055,0.121,0.085,0.198,0.085s0.145-0.026,0.201-0.085c0.055-0.055,0.084-0.118,0.084-0.196
			c0.001-0.079-0.027-0.146-0.081-0.202c-0.029-0.028-0.064-0.051-0.105-0.066c0.041-0.016,0.076-0.036,0.105-0.065
			C42.199,36.632,42.229,36.566,42.229,36.487z"/>
	</g>
	<g>
		<path fill="#FFFFFF" d="M75.328,8.51c0,0.489-0.152,0.957-0.455,1.402c-0.304,0.446-0.682,0.827-1.134,1.143
			c-2.329,1.617-3.778,2.623-4.348,3.02c-0.062,0.044-0.193,0.138-0.395,0.283c-0.202,0.146-0.369,0.264-0.502,0.354
			c-0.134,0.09-0.294,0.19-0.483,0.302c-0.188,0.111-0.367,0.195-0.534,0.251s-0.322,0.084-0.465,0.084h-0.009h-0.01
			c-0.143,0-0.297-0.028-0.464-0.084s-0.346-0.14-0.534-0.251c-0.189-0.111-0.351-0.212-0.483-0.302s-0.301-0.207-0.502-0.354
			c-0.201-0.146-0.333-0.239-0.395-0.283c-0.563-0.396-1.375-0.961-2.434-1.695c-1.06-0.733-1.694-1.175-1.905-1.324
			c-0.384-0.26-0.746-0.617-1.087-1.072c-0.341-0.456-0.511-0.878-0.511-1.269c0-0.483,0.129-0.886,0.386-1.208
			c0.257-0.321,0.624-0.482,1.101-0.482h13.676c0.402,0,0.751,0.146,1.045,0.437S75.328,8.1,75.328,8.51z M75.328,11.241v7.376
			c0,0.409-0.146,0.759-0.437,1.05s-0.642,0.437-1.05,0.437H60.166c-0.408,0-0.759-0.146-1.05-0.437s-0.437-0.641-0.437-1.05v-7.376
			c0.272,0.304,0.585,0.572,0.938,0.808c2.242,1.524,3.781,2.593,4.617,3.205c0.354,0.261,0.64,0.464,0.859,0.609
			s0.513,0.294,0.878,0.445c0.365,0.152,0.706,0.228,1.021,0.228h0.01h0.009c0.316,0,0.657-0.075,1.022-0.228
			c0.365-0.151,0.658-0.3,0.878-0.445s0.506-0.349,0.859-0.609c1.053-0.762,2.595-1.83,4.627-3.205
			C74.752,11.807,75.061,11.538,75.328,11.241z"/>
	</g>
	<g>
		<path fill="#FFFFFF" d="M101.869,57.811c0,1.354-0.422,2.653-1.262,3.887c-0.842,1.234-1.889,2.289-3.143,3.166
			c-6.456,4.484-10.473,7.271-12.051,8.371c-0.173,0.119-0.536,0.379-1.094,0.785c-0.56,0.406-1.023,0.73-1.391,0.98
			c-0.371,0.248-0.815,0.523-1.34,0.832c-0.522,0.309-1.018,0.543-1.48,0.699c-0.463,0.152-0.894,0.232-1.289,0.232h-0.024h-0.027
			c-0.395,0-0.823-0.08-1.286-0.232c-0.463-0.156-0.958-0.391-1.48-0.699c-0.525-0.309-0.972-0.584-1.34-0.832
			c-0.368-0.25-0.833-0.574-1.391-0.98s-0.923-0.666-1.094-0.785c-1.562-1.1-3.811-2.664-6.746-4.699
			c-2.937-2.035-4.697-3.26-5.281-3.672c-1.064-0.719-2.068-1.709-3.013-2.971c-0.945-1.268-1.416-2.437-1.416-3.52
			c0-1.337,0.357-2.452,1.069-3.346c0.712-0.893,1.729-1.337,3.051-1.337h37.908c1.115,0,2.082,0.4,2.896,1.207
			C101.46,55.705,101.869,56.675,101.869,57.811z M101.869,65.38v20.447c0,1.133-0.403,2.102-1.21,2.908s-1.778,1.213-2.91,1.213
			H59.841c-1.132,0-2.104-0.406-2.91-1.213s-1.21-1.775-1.21-2.908V65.38c0.755,0.844,1.622,1.586,2.602,2.24
			c6.215,4.225,10.481,7.186,12.798,8.885c0.98,0.721,1.773,1.283,2.382,1.689c0.609,0.4,1.421,0.812,2.434,1.234
			c1.012,0.422,1.957,0.629,2.831,0.629h0.027h0.024c0.877,0,1.822-0.207,2.834-0.629c1.013-0.422,1.825-0.834,2.434-1.234
			c0.609-0.406,1.402-0.969,2.382-1.689c2.918-2.111,7.192-5.072,12.826-8.885C100.272,66.95,101.13,66.202,101.869,65.38z"/>
	</g>
	<g>
		<path fill="#FFFFFF" d="M23.061,35.052c0,0.161-0.05,0.316-0.15,0.463c-0.1,0.147-0.225,0.272-0.374,0.377
			c-0.769,0.534-1.247,0.866-1.435,0.997c-0.021,0.014-0.063,0.045-0.13,0.094c-0.067,0.048-0.122,0.087-0.166,0.116
			s-0.097,0.062-0.159,0.1c-0.062,0.036-0.121,0.064-0.176,0.083c-0.055,0.018-0.106,0.027-0.154,0.027h-0.003H20.31
			c-0.047,0-0.098-0.01-0.153-0.027c-0.055-0.019-0.114-0.047-0.176-0.083c-0.062-0.037-0.116-0.07-0.16-0.1
			c-0.043-0.029-0.099-0.068-0.166-0.116c-0.066-0.049-0.11-0.08-0.13-0.094c-0.186-0.131-0.454-0.317-0.803-0.56
			c-0.35-0.242-0.56-0.388-0.629-0.438c-0.127-0.085-0.246-0.203-0.359-0.354c-0.112-0.15-0.168-0.29-0.168-0.419
			c0-0.159,0.042-0.292,0.127-0.398c0.084-0.106,0.206-0.159,0.363-0.159h4.513c0.133,0,0.248,0.048,0.345,0.144
			C23.012,34.802,23.061,34.918,23.061,35.052z M23.061,35.954v2.435c0,0.135-0.048,0.25-0.144,0.347
			c-0.096,0.096-0.212,0.145-0.347,0.145h-4.513c-0.135,0-0.25-0.049-0.347-0.145c-0.096-0.097-0.144-0.212-0.144-0.347v-2.435
			c0.09,0.101,0.193,0.188,0.31,0.267c0.74,0.503,1.248,0.855,1.524,1.059c0.117,0.085,0.211,0.152,0.284,0.2
			c0.073,0.048,0.169,0.098,0.29,0.147c0.12,0.05,0.233,0.075,0.337,0.075h0.003h0.003c0.104,0,0.217-0.025,0.338-0.075
			c0.12-0.05,0.217-0.1,0.29-0.147s0.167-0.115,0.284-0.2c0.347-0.252,0.856-0.604,1.527-1.059
			C22.871,36.141,22.973,36.052,23.061,35.954z"/>
	</g>
	<g>
		<path fill="#FFFFFF" d="M16.449,7.959c0,0.101-0.031,0.197-0.094,0.288c-0.062,0.092-0.14,0.169-0.232,0.234
			c-0.478,0.333-0.776,0.539-0.893,0.621c-0.013,0.008-0.04,0.028-0.081,0.058c-0.042,0.03-0.076,0.054-0.103,0.072
			s-0.06,0.039-0.099,0.062c-0.039,0.022-0.075,0.04-0.11,0.052c-0.034,0.011-0.066,0.017-0.096,0.017H14.74h-0.002
			c-0.029,0-0.061-0.006-0.095-0.017c-0.035-0.012-0.071-0.029-0.11-0.052c-0.039-0.023-0.072-0.044-0.099-0.062
			S14.372,9.19,14.331,9.16c-0.042-0.03-0.068-0.05-0.081-0.058c-0.116-0.082-0.282-0.198-0.5-0.348
			c-0.217-0.151-0.348-0.241-0.391-0.272c-0.079-0.053-0.153-0.126-0.223-0.22c-0.07-0.094-0.105-0.181-0.105-0.261
			c0-0.099,0.026-0.182,0.079-0.248c0.053-0.066,0.128-0.099,0.226-0.099h2.808c0.083,0,0.154,0.03,0.215,0.089
			C16.419,7.803,16.449,7.875,16.449,7.959z M16.449,8.52v1.514c0,0.084-0.03,0.156-0.09,0.216c-0.06,0.06-0.132,0.09-0.215,0.09
			h-2.808c-0.083,0-0.156-0.03-0.215-0.09c-0.06-0.06-0.09-0.132-0.09-0.216V8.52c0.056,0.062,0.12,0.117,0.192,0.166
			c0.46,0.313,0.776,0.532,0.948,0.659c0.072,0.053,0.131,0.095,0.176,0.125c0.045,0.03,0.105,0.061,0.181,0.092
			c0.075,0.031,0.145,0.047,0.209,0.047h0.002h0.001c0.065,0,0.135-0.016,0.21-0.047c0.075-0.031,0.135-0.062,0.18-0.092
			c0.045-0.03,0.104-0.072,0.176-0.125c0.216-0.157,0.533-0.376,0.95-0.659C16.331,8.636,16.394,8.58,16.449,8.52z"/>
	</g>
	<g>
		<path fill="#FFFFFF" d="M44.882,39.739c0,0.18-0.056,0.354-0.169,0.518c-0.112,0.165-0.252,0.306-0.419,0.422
			c-0.862,0.601-1.398,0.972-1.609,1.12c-0.023,0.014-0.071,0.049-0.146,0.105c-0.075,0.053-0.137,0.097-0.186,0.13
			c-0.049,0.032-0.108,0.07-0.179,0.111c-0.07,0.04-0.135,0.072-0.198,0.093c-0.062,0.02-0.119,0.03-0.173,0.03h-0.002h-0.003
			c-0.053,0-0.11-0.011-0.172-0.03c-0.062-0.021-0.127-0.053-0.198-0.093c-0.071-0.041-0.129-0.079-0.179-0.111
			c-0.049-0.033-0.112-0.077-0.186-0.13c-0.075-0.057-0.123-0.092-0.146-0.105c-0.208-0.148-0.509-0.355-0.9-0.627
			c-0.392-0.272-0.627-0.437-0.705-0.493c-0.143-0.095-0.276-0.227-0.402-0.394c-0.126-0.169-0.189-0.328-0.189-0.473
			c0-0.178,0.047-0.327,0.143-0.445c0.095-0.119,0.23-0.178,0.408-0.178h5.061c0.149,0,0.278,0.053,0.387,0.16
			C44.827,39.457,44.882,39.588,44.882,39.739z M44.882,40.75v2.728c0,0.151-0.054,0.282-0.162,0.392
			c-0.107,0.105-0.237,0.161-0.388,0.161h-5.061c-0.151,0-0.281-0.056-0.388-0.161c-0.108-0.109-0.162-0.24-0.162-0.392V40.75
			c0.101,0.112,0.216,0.211,0.347,0.299c0.83,0.563,1.399,0.957,1.709,1.187c0.13,0.095,0.237,0.171,0.318,0.226
			c0.082,0.053,0.19,0.108,0.325,0.165c0.135,0.055,0.261,0.085,0.378,0.085h0.003h0.002c0.118,0,0.244-0.03,0.379-0.085
			c0.135-0.057,0.243-0.112,0.325-0.165c0.081-0.055,0.188-0.131,0.318-0.226c0.389-0.282,0.96-0.678,1.712-1.187
			C44.669,40.959,44.783,40.858,44.882,40.75z"/>
	</g>
	<g>
		<path fill="#FFFFFF" d="M62.138,27.598c0,0.18-0.056,0.354-0.169,0.518c-0.112,0.165-0.252,0.306-0.419,0.422
			c-0.862,0.601-1.398,0.972-1.609,1.12c-0.023,0.014-0.071,0.049-0.146,0.105c-0.075,0.053-0.137,0.097-0.186,0.13
			c-0.049,0.032-0.108,0.07-0.179,0.111c-0.07,0.04-0.135,0.072-0.198,0.093c-0.062,0.02-0.119,0.03-0.173,0.03h-0.002h-0.003
			c-0.053,0-0.11-0.011-0.172-0.03c-0.062-0.021-0.127-0.053-0.198-0.093c-0.071-0.041-0.129-0.079-0.179-0.111
			c-0.049-0.033-0.112-0.077-0.186-0.13c-0.075-0.057-0.123-0.092-0.146-0.105c-0.208-0.148-0.509-0.355-0.9-0.627
			c-0.392-0.272-0.627-0.437-0.705-0.493c-0.143-0.095-0.276-0.227-0.402-0.394c-0.126-0.169-0.189-0.328-0.189-0.473
			c0-0.178,0.047-0.327,0.143-0.445c0.095-0.119,0.23-0.178,0.408-0.178h5.061c0.149,0,0.278,0.053,0.387,0.16
			C62.084,27.316,62.138,27.447,62.138,27.598z M62.138,28.609v2.728c0,0.151-0.054,0.282-0.162,0.392
			c-0.107,0.105-0.237,0.161-0.388,0.161h-5.061c-0.151,0-0.281-0.056-0.388-0.161c-0.108-0.109-0.162-0.24-0.162-0.392v-2.728
			c0.101,0.112,0.216,0.211,0.347,0.299c0.83,0.563,1.399,0.957,1.709,1.187c0.13,0.095,0.237,0.171,0.318,0.226
			c0.082,0.053,0.19,0.108,0.325,0.165c0.135,0.055,0.261,0.085,0.378,0.085h0.003h0.002c0.118,0,0.244-0.03,0.379-0.085
			c0.135-0.057,0.243-0.112,0.325-0.165c0.081-0.055,0.188-0.131,0.318-0.226c0.389-0.282,0.96-0.678,1.712-1.187
			C61.926,28.818,62.04,28.718,62.138,28.609z"/>
	</g>
	<g>
		<path fill="#FFFFFF" d="M97.99,31.849c0,0.304-0.095,0.598-0.286,0.875c-0.189,0.279-0.426,0.517-0.708,0.713
			c-1.457,1.015-2.363,1.643-2.719,1.894c-0.039,0.022-0.12,0.082-0.247,0.178c-0.127,0.089-0.231,0.163-0.314,0.22
			c-0.083,0.055-0.182,0.118-0.302,0.188c-0.119,0.068-0.229,0.122-0.334,0.157c-0.104,0.033-0.201,0.051-0.292,0.051h-0.004h-0.005
			c-0.089,0-0.187-0.018-0.291-0.051c-0.106-0.035-0.215-0.089-0.334-0.157c-0.12-0.069-0.219-0.133-0.302-0.188
			c-0.083-0.057-0.189-0.131-0.314-0.22c-0.126-0.096-0.208-0.155-0.247-0.178c-0.353-0.251-0.86-0.602-1.522-1.061
			c-0.662-0.46-1.061-0.737-1.191-0.833c-0.241-0.16-0.467-0.383-0.679-0.665c-0.213-0.285-0.32-0.555-0.32-0.799
			c0-0.301,0.08-0.553,0.241-0.753c0.161-0.201,0.389-0.3,0.689-0.3h8.552c0.252,0,0.471,0.089,0.654,0.271
			S97.99,31.594,97.99,31.849z M97.99,33.557v4.61c0,0.256-0.091,0.477-0.274,0.661c-0.182,0.179-0.401,0.272-0.656,0.272h-8.552
			c-0.255,0-0.475-0.094-0.656-0.272c-0.183-0.185-0.274-0.405-0.274-0.661v-4.61c0.17,0.19,0.366,0.356,0.586,0.506
			c1.403,0.952,2.365,1.617,2.889,2.005c0.22,0.16,0.4,0.289,0.537,0.381c0.138,0.09,0.321,0.184,0.549,0.279
			c0.228,0.093,0.441,0.144,0.639,0.144h0.005h0.004c0.2,0,0.413-0.051,0.641-0.144c0.228-0.096,0.411-0.189,0.549-0.279
			c0.137-0.092,0.317-0.221,0.537-0.381c0.658-0.478,1.623-1.146,2.894-2.005C97.63,33.911,97.823,33.741,97.99,33.557z"/>
	</g>
</g>
</svg>
