<?xml version="1.0" encoding="utf-8"?>
<!-- Generator: Adobe Illustrator 19.0.0, SVG Export Plug-In . SVG Version: 6.00 Build 0)  -->
<svg version="1.1" id="Layer_1" xmlns="http://www.w3.org/2000/svg" xmlns:xlink="http://www.w3.org/1999/xlink" x="0px" y="0px"
	 viewBox="662 -120.1 1920 1080" style="enable-background:new 662 -120.1 1920 1080;" xml:space="preserve">
<style type="text/css">
	.st0{fill:#5D5D5D;}
</style>
<g>
	<path class="st0" d="M735.6,303.4c55.8-10.2,98.1-56.2,101.4-112.7c2.5-43.4-13.7-79.7-48.6-106.3c-41.6-31.7-94.3-32.7-135.6-8.7
		c0,1.7,0,3.3,0,5c10.2-2.9,18.8-10.3,31-11.1c-11.7,20.4-17.9,40.9-11.7,63.8c6.3,23.1,19.7,40,41.2,50.2c18,8.5,36.7,9.5,55.7,3.3
		c26.8-8.8,42.6-28.1,50.8-55.4c6.1,10.9,8.3,21.7,10.5,32.5c0.8,3.8,0.3,6.1-4.6,4.1c-5.5-2.2-10,0.2-12.6,5
		c-3,5.4-1,10.2,3.6,13.9c3,2.5,5.8,5.2,9.1,7.2c3.9,2.4,4.6,5,3.7,9.6c-11.9,65.8-77.7,108.5-142.9,92.9
		c-12-2.9-22.4-9.3-33.9-13.3c0,2.2,0,4.4,0,6.7c2.6,1,5.2,1.9,7.7,3C684.5,304.4,709.5,308.2,735.6,303.4z"/>
	<path class="st0" d="M723.3-12.5C752.6,14.2,787.2,24,826,18.1c32.7-5,59.2-21.2,78.9-47.7c21.2-28.6,28.1-60.8,22.1-95.9
		c-1.7,0-3.3,0-5,0c2.8,18.8,2.4,37.4-3.2,55.8c-4.7,15.6-12.4,29.5-22.6,42.1c-2.3,2.9-4.9,6.6-9.6,4c-4.3-2.4-2.3-6.1-1.9-9.6
		c3.3-28.9-4.9-55.2-18.5-80.3c-2.2-4.1-4.9-8-7.4-12c-3.3,0-6.7,0-10,0c1,2.6,1.9,5.2,3,7.7c11.2,24.2,18.1,49.1,13.8,76.3
		c-2.5,15.7-4.1,18.6-19.7,23.2c-1.9,0.5-3.7,1.2-5.5,1.8c-5.8,1.8-12,5.7-17.3,4.7C816.7-13,818.3-22,815-27
		c-3.5-5.3-6.5-10.9-9.6-16.5c-3.8-6.8-10.7-10.9-15.4-18c6.7-1.6,12,1,17.3,2.7c2.3,0.7,4.8,2.6,7,0.5c2.5-2.5,0.4-5.1-0.6-7.6
		c-3.3-8.6-10-14.3-17.2-20.1c4.1-2.8,7.8-5.1,11.4-7.7c4.9-3.5,4.6-6.6-1.2-8.6c-7.3-2.5-14.7-2-22,0.3c-1.5,0.5-3.2,1.6-4.6,0
		c-1-1.2-0.2-2.6,0.1-3.9c0.6-3,6-5.7,2.1-8.5c-3.3-2.3-6.4,1.9-9.4,3.8c-2.1,1.3-4,3-5.8,4.7c-7,6.6-6.9,6.6-12.2-1.6
		c-1.6-2.4-2.2-6.3-6.2-5.8c-3.7,0.5-4.8,4.2-4.9,6.9c-0.1,14.2-6.7,22.9-20.4,26.4c-1.7,0.4-3.9,1.6-3.5,4s2.8,2.5,4.5,3
		c4.5,1.3,9.1,2.4,13.6,3.7c4.2,1.3,5.7,3.3,3.4,7.9c-2.9,5.7-4.3,11.9-2.4,18.4c0.9,3.1,0.8,7.5,4.8,7.7c3.3,0.2,3-4,4.3-6.3
		c1-1.9,1.4-4.6,4.1-4.6c2.3,0,2.7,2.5,3.6,4.1c3.7,7,9.2,12.5,15.8,16.7c2,1.3,4.3,3.5,6.8,1.8c2.7-1.8,0.9-4.7,0.3-6.9
		c-1.5-6.5-3.4-12.8-5.1-19.2c-0.7-2.6-2.5-6.3,0-7.7c3.3-1.9,5.3,2.3,7,4.3c11.5,13.6,19.1,28.8,20.4,47
		c1.1,15.9-4.6,21.4-20.1,17.7c-26.1-6.2-48-19.1-65.2-40C692.1-57,685-89.6,691-125.6c-2.2,0-4.4,0-6.7,0
		c-0.5,6.6-1.6,13.2-1.5,19.8C683.5-69,695.9-37.4,723.3-12.5z"/>
	<path class="st0" d="M1293.7-87.5c-10.4,4.2-12.3,9.4-8.5,19.8c6.4,17.7,12.8,35.4,20,52.8c3.8,9.1,5.8,16.6-2.4,24.7
		c-5.4,5.4-2.3,13.8,4.7,16.7c4.9,2.1,9.2,0,13.6-1.6c25.3-9.7,50.7-19.4,76-29.1c20.1-7.8,40.3-15.6,60.4-23.5
		c5.4-2.1,8.9-6.1,7.9-12.2c-0.8-5.1-3.1-10.7-9-10.3c-12,0.7-15.8-6.6-18.4-16.1c-1-3.7-2.6-7.3-4.1-10.9
		c-6.9-16-11.3-33-19.7-48.3c-8.3,0-16.6,0-24.9,0c-3.8,1.7-7.4,3.6-11.3,5.1C1349.9-109.4,1321.7-98.8,1293.7-87.5z M1393-14.4
		c-6.6,2.7-13.3,5.1-18.6,7.2c-3.4-0.2-5.8,0.2-6.5-2c-0.9-2.8,1.9-2.8,3.6-3.4c6.4-2.4,12.9-4.8,19.4-7.1c1.6-0.6,3.5-1.1,4.4,0.7
		C1396.2-16.9,1394.8-15.2,1393-14.4z M1395.7-109c4.9-1.9,7.8-0.8,9.7,4.1c6.7,17.6,13.5,35.1,20.3,52.6c0.5,1.3,0.8,2.6,1.1,3.7
		c0.2,3.1-1.9,3.9-4,4.7c-30.2,11.6-60.5,23.1-90.7,34.7c-4.2,1.6-6.4,0.7-8.1-3.8c-6.6-17.9-13.6-35.7-20.6-53.4
		c-1.8-4.6-0.8-7.1,3.9-8.9C1336.8-86.3,1366.3-97.6,1395.7-109z"/>
	<path class="st0" d="M2225.7-94.4c2.2,1.9,3.7,4.8,5,7.5c11.9,24.3,23.7,48.7,35.7,73c2.8,5.7,3.2,14.1,8.6,16.5
		c5.7,2.5,11.2-4.5,17.2-6.4c2.1-0.6,4.1-1.8,6.1-2.5c4.6-1.8,5.5-4.3,3.2-9c-10.8-22.1-21.2-44.4-31.8-66.6
		c-4.9-10.2-3.6-16.4,5.2-23.6c9.3-7.6,15.6-6.5,20.9,4.3c10.6,21.9,21,43.9,31.4,65.9c5.3,11.2,5.3,11.3,16.3,6.7
		c3.3-1.4,6.5-3.1,9.9-4.3c6.9-2.5,7.6-6.3,4.4-12.7c-10.8-21.8-20.9-43.9-31.6-65.8c-2.5-5.2-2.2-9.4,0.8-13.9
		c-22.7,0-45.4,0-68.2,0c-1.4,2.7-2.7,5.4-4.1,8.1c-1.4,2.8-3.4,3.9-5.7,1.1c-4.8-5.9-8.6-3.7-12.9,0.8c-3,3.2-6.6,5.9-10.1,8.6
		C2220.7-102.8,2220.2-99.1,2225.7-94.4z"/>
	<path class="st0" d="M682.5,569.8c12.7,3.6,22.6-2.6,32.5-8.8c2.5-1.5,7.1-4.2,4.7-7.6c-3.5-4.9-7.7-13.5-13.1-12
		c-9.6,2.7-12.4-2.8-15.2-8.5c-7.6-15-14.6-30.4-21.9-45.7c-5.2-11-9.8-22.3-16.6-32.4c0,26,0,52.1,0,78.1
		c4.7,5.9,7.1,13.1,10.6,19.7C667.7,560.7,673.2,567.2,682.5,569.8z"/>
	<path class="st0" d="M1282.7,37.6c34.1,31.8,75,40.9,120.2,28.5c59.7-16.4,98.7-82.4,85.1-142.9c-4-17.6-12-33.1-20.6-48.6
		c-2.8,0-5.5,0-8.3,0c20.8,27.2,29.4,57.8,24.7,91.8c-8.7,63.1-70.4,108.2-133.8,98c-73.8-11.9-117.2-83.7-93.7-154.6
		c4.2-12.8,12.1-23.5,18.2-35.2c-2.2,0-4.4,0-6.7,0c-4.1,7.5-8.5,14.8-12.1,22.6C1233.2-54.1,1244.4,1.8,1282.7,37.6z"/>
	<path class="st0" d="M2482.5-92c15.3-6.5,28.8-15.4,32.4-33.5c-10,0-20,0-29.9,0c-7.3,15.6-21,15.6-33.3,0c-13.9,0-27.7,0-41.6,0
		C2420.6-98.8,2450.7-78.6,2482.5-92z"/>
	<path class="st0" d="M2396-53.4c5-3,10.2-5.9,15.7-7.6c7.1-2.3,6.3-5.6,3.6-11.1c-8.6-17.7-16.8-35.5-25.1-53.3
		c-12.2,0-24.4,0-36.6,0c10.9,22.7,21.8,45.4,32.5,68.3C2388.5-52.1,2390.7-50.2,2396-53.4z"/>
	<path class="st0" d="M701,802.9c-3-36.1-19.4-65.1-48.2-87.1c0,2.2,0,4.4,0,6.7c58,47.2,58,136.2,0,182.9c0,2.2,0,4.4,0,6.7
		C688.6,884.4,704.7,847.8,701,802.9z"/>
	<path class="st0" d="M1819.9-125.4c-2.8,0-5.5,0-8.3,0c-3.5,6.8-9.8,11.1-15.7,15.3c-26.9,18.9-56.6,27-89.3,21
		c-25.9-4.7-48.4-16.6-66.3-36.3c-2.2,0-4.4,0-6.7,0C1678.3-67.8,1774.6-67.8,1819.9-125.4z"/>
	<path class="st0" d="M1209.8-125.4c-3.3,0-6.7,0-10,0c-1.2,1.1-2.2,2.5-3.5,3.4c-44.1,30.8-95.2,27.4-137.8-3.4c-2.8,0-5.5,0-8.3,0
		c18.2,17.7,41.4,26.1,65.3,29.3C1150.7-91.3,1182.6-101.8,1209.8-125.4z"/>
	<path class="st0" d="M810.3-111.6c4.6,1.1,4-5,5.7-7.8c2.2-3.6,3.7-4.6,6.1-0.2c4.3,7.9,9.8,14.7,18,18.9c1.7,0.9,3.5,2.1,5.4,0.7
		c1.9-1.5,0.9-3.5,0.4-5.3c-1.8-6.7-3.5-13.3-5.2-20c-11.6,0-23.3,0-34.9,0c0,0.8-0.1,1.7,0,2.5
		C805.9-118.6,805.3-112.8,810.3-111.6z"/>
	<path class="st0" d="M662.7,151.7c0.8-7.3-3.4-10.9-9.9-12.8c0,7.2,0,14.4,0,21.6C658.5,160.2,662,157.3,662.7,151.7z"/>
	<path class="st0" d="M668.4,758c-0.9-1.8-2.5-1.6-4.3-1.2c-3.7,0.9-7.5,1.5-11.3,2.2c0,4.4,0,8.9,0,13.3c5.2-2.7,10.2-5.6,14.1-10
		C668,761.2,669.3,759.8,668.4,758z"/>
	<path class="st0" d="M652.8,90.7c0,5.5,0,11.1,0,16.6C659.7,101.1,659.7,96.9,652.8,90.7z"/>
	<path class="st0" d="M1139.9-125.4c-8.9,0-17.7,0-26.6,0C1122.2-122.7,1131.1-122.8,1139.9-125.4z"/>
	<path class="st0" d="M1832.3,740.3c70.7,0.4,122.5-58.2,122.8-123.2c0.3-67.2-57-124.8-122.9-122.4
		c-65.7-1.6-123.7,52.2-123.1,123.4C1709.7,687.1,1763.4,739.9,1832.3,740.3z M1737,672.9c-1,1.9-1.7,4.7-4.1,4.9
		c-2.7,0.2-3.1-2.8-4.1-4.6c-16.8-32.3-18.9-65.6-5.6-99.4c19-48.3,65.9-78.3,118.1-73.7c45.7,4,78.9,28,98.5,69.9
		c0.3,0.7,0.4,1.6,0.6,2.4c0,0.2-0.1,0.5-0.6,1.7c-17.8-6.5-35.5-15.9-55-6.2l0,0c2.3,0.2,5.5,0.3,2,3.4
		c-8.9,7.8-14.3,18.9-27.6,22.4c-10,2.6-16.9,11.9-23.8,19.9c-1.8,2.1-3.6,4.2-5.3,6.3c-4.1,5.2-7,4.3-10.7-1
		c-10.1-14.7-22.6-26.3-41.1-29.5l0,0l0,0c-2.8-0.6-5.6-1.2-8.4-1.7l0,0l0,0c-15.4,0.5-20.2,4.1-23.3,19.2
		c-3.2,15.1-5.1,30.5-4.8,46C1742.1,660.1,1740.2,666.7,1737,672.9z"/>
	<path class="st0" d="M1266.9,450c-67.1-0.9-123,55-123.8,120.9c-0.9,71.2,58.2,126.3,122.7,125c66.9,1.6,122.6-54.2,123.6-120.6
		C1390.4,505.3,1336.2,451,1266.9,450z M1382.6,559.4c-12.6-2.8-19.1,1.4-18.2,10.9c0.4,4.2,3.7,5.7,6,8.4
		c4.1,4.8,13.3,5.6,11.8,15.2c-7.8,48.3-49.4,88.1-97.9,95.6c-59.7,9.3-121.5-30.4-133.4-94.6c-6.5-35.1,2.3-66.2,23-94.5
		c2.1-2.8,4.3-3.8,7.8-2.8c4,1.1,8.2,1.4,12.2,2.2c6.6,1.2,13.2,1.8,15.4-6.6c2.2-8.2-2.5-12.4-9.9-14.3c5.7-8,24.3-17.3,37.1-18.1
		c-17.2,26.1-19.7,53-5.8,80.4c9.1,18,23.7,30.5,43.1,36.6c36.4,11.5,81.5-2.5,98.7-55.4C1377.9,534.7,1382.2,546.3,1382.6,559.4z"
		/>
	<path class="st0" d="M2094.2,882.3c70.6,1.3,125.8-54.6,126.3-122.4c0.5-68-55.1-123.8-122.4-123.9c-68.3,0-123.5,54.7-123.5,122.5
		C1972.8,826.8,2031.2,881.2,2094.2,882.3z M2003.4,688.3c3-4.3,6.4-6.4,11.9-4.3c4.6,1.7,9.7,2.1,14.7,2c5.4-0.1,9.3-2.2,10.7-7.4
		c1.5-5.5-0.7-10.3-6.1-12.1c-6.6-2.2-4.3-4-0.4-6.5c9.8-6.2,20.1-11.2,33.1-14.3c-31.7,52.6-4.1,99.5,28.4,114.5
		c21.8,10.1,44,10.3,65.8,0c21.7-10.3,35-27.9,41.6-52c6.3,11.3,8.6,22.4,10.7,33.4c0.8,3.9-0.7,4.9-4.6,3.5
		c-5.9-2.2-10.4,0.3-13,5.6c-2.5,5.2-0.5,9.7,3.8,13.2c0.2,0.2,0.4,0.3,0.6,0.5c14.6,12,15.2,12.2,8.9,29.9
		c-16.2,46-48.2,73.7-96.8,81.2c-58.9,9-118.8-31.3-131-94.6C1975.2,747,1983.8,716.3,2003.4,688.3z"/>
	<path class="st0" d="M2279.2,60.8c-67-0.1-122.8,55.4-123.5,121.4c-0.8,70.9,58.2,126.2,123,124.7c68.3,1.7,122.2-57.2,123.4-119.3
		C2403.3,118.3,2344.3,60.9,2279.2,60.8z M2392.8,214.7c-17,55-62.3,89.2-119.2,86.9c-57.3-2.4-103.6-44.4-111.3-102.2
		c-4.2-31.5,4-59.5,22-85.3c3.3-4.7,6.3-7,12.2-5.2c3.9,1.2,8.2,1.3,12.2,2.1c6.3,1.3,11.2-0.2,13-6.8c1.8-6.6-0.7-11.4-7.5-13.5
		c-0.8-0.2-1.5-0.6-3.3-1.4c10.7-9.9,23.2-14.5,37.2-17.8c-16.5,26.6-18.9,53.8-4.6,81.3c9.6,18.5,24.9,30.8,45,36.7
		c39.8,11.7,83.6-10.9,96-54.8c5.8,11.2,8.6,21.8,10.4,32.7c0.5,2.8,0.9,5.8-4.1,3.8c-5.3-2.1-10.1,0-12.9,4.7
		c-2.9,5.1-0.7,9.6,3.4,13.3c1.9,1.7,3.3,4.1,5.4,5.1C2396.5,199,2395.4,206.5,2392.8,214.7z"/>
	<path class="st0" d="M925.9,811.9c70.4,0,123.7-54.2,123.6-123.2c-0.1-68.8-51.5-122.2-123-123.4c-72.4-1.1-124,59.5-122.5,122.9
		C802.3,755.5,857.1,811.9,925.9,811.9z M1041.3,714.1c-3.7,16.7-10.6,32.1-21.2,45.6c-23.8,30.5-55.1,46.2-102.8,46.3
		c-16.9,0.6-39.7-7.4-60.1-22.6c-4.8-3.6-12.3-6.3-6.9-14.7c4.9-7.7,15-10.5,22.6-6.2c7.5,4.3,12.8,10.8,15.6,18.8
		c2.6,7.5,6.3,4.9,10.6,2.6c4.5-2.4,9.8-4.2,4.6-10.8c-2.9-3.7-5.7-7.5-7.9-11.7c-4-7.6-2.3-13.8,4.6-18.8c16.3-12,27.5-8.7,36,10.9
		c1.9,4.5,2.8,9.6,9.5,4.9c4.8-3.3,12.6-4.7,5.3-12.8c-0.9-1-1.5-2.3-2.3-3.4c-9.3-12.4-8.6-22.8,2-30.8c9-6.8,20.8-3.6,29.2,8
		c2.1,2.9,3.9,6.1,5.4,9.3c1.6,3.5,3.1,7.2,7.6,3.9c3.5-2.6,10.5-3.2,7.3-10.6c-1.5-3.6-3.9-6.6-6.4-9.6c-5.9-7-5.2-16.5,1.6-24.2
		c6.3-7.2,14.5-8.8,22.2-3.8c6.1,3.9,11.3,8.9,14.7,15.5c1.7,3.4,1.5,8,8,7.5C1043.8,707,1041.8,711.9,1041.3,714.1z M915.7,714.7
		c1.8,3.3,0.1,5.1-2.7,6.6c-8.5,4.7-16.9,9.4-25.3,14.2c-2.7,1.5-5.2,2.1-7-1.3c-6.1-12.1-13.8-23.4-18.6-36.2
		c-0.6-1.5-0.9-3.2-1.3-4.3c-0.3-7.2,6.3-15.3,14.2-18.3c8-3,17.4-1.6,21.2,4.5C903.2,691.2,909.3,703,915.7,714.7z M930.3,647.7
		c6.6-0.2,12,2.1,15.4,7.9c6.1,10.5,11.9,21.2,17.9,31.7c2,3.5,1.8,6-2.2,8.1c-8.4,4.3-16.6,8.8-24.8,13.3c-3.4,1.8-6,2.3-8.2-1.8
		c-5.6-10.5-12-20.6-16.9-31.3C905.1,661.9,915,647.8,930.3,647.7z M1040.7,667c3.5,6.2,3.2,11.5,1.9,18.3
		C1037.4,679.1,1037.6,673.8,1040.7,667z M1006,610.3c0.5-1.6,1.2-3.1,3.6-3.4c1.2,1,2.8,2.1,4.1,3.5c10.2,10.7,17.6,23.2,22.9,37.1
		c2.1,5.4-1,7.3-4.9,9.5c-4.9,2.8-6.2-0.6-7.9-3.9c-5.4-10.3-10.8-20.5-16.2-30.8C1005.5,618.5,1004.6,614.6,1006,610.3z M994.4,630
		c6,9.9,11.4,20.2,17.1,30.2c2.5,4.3,1.7,6.9-2.8,9.2c-8.6,4.4-17,9.2-25.3,14c-3.6,2.1-5.4,1.1-7.1-2.3
		c-5.3-10.3-10.1-20.9-16.4-30.6c-8.3-12.8,4.2-29.9,19.1-29.4C985.9,620.5,991,624.3,994.4,630z M810.7,686.2
		c-3.2-2-1.7-6.1-1.3-9.2c5.3-39.8,24.8-70.6,59.4-91c17.1-10.1,36.1-15.4,53.2-14.9c23.7,0.1,43.1,4.6,61.1,14.8
		c1.8,1,4.7,1.4,4.6,4.2c-0.1,2.2-2.5,2.7-4.1,3.6c-54.9,30-109.7,59.9-164.6,89.8C816.3,684.8,813.4,687.9,810.7,686.2z
		 M833.7,760.9c-7.5-13.1-16.5-25.6-20.1-40.7c-0.2-0.8-0.3-1.6-0.5-2.2c0.2-6.3,7.4-14.6,14.6-16.9c8.7-2.8,17.5-0.5,21.9,6.8
		c6.5,10.6,12.1,21.7,18.3,32.5c2,3.5,1,5.3-2.4,7.1c-8.6,4.5-17,9.3-25.4,14.1C837.8,763,835.3,763.7,833.7,760.9z"/>
	<path class="st0" d="M1816.6,299.5c-1.5,67.1,53.3,123.5,122.4,123.3c70-0.3,122.9-54.1,123.1-123c0.2-69.8-53.8-119.6-113.1-122.3
		C1872.6,174,1814.6,231.3,1816.6,299.5z M1846.3,371.9c-7.7-13.3-16.8-26-20.4-41.4c-0.1-0.5-0.2-1.1-0.3-1.6
		c0.1-6.1,7.3-14.4,14.4-16.7c8.4-2.7,17.2-0.8,21.5,6c6.9,11,12.8,22.6,19.2,33.9c1.9,3.4,0.3,4.9-2.6,6.4
		c-8.5,4.6-16.9,9.3-25.4,14.1C1850.5,373.8,1848,374.7,1846.3,371.9z M1927.8,324.6c2.2,3.9,0.8,6-2.8,7.9
		c-8.3,4.4-16.5,9.1-24.6,13.8c-3.7,2.2-6,1.4-7.9-2.4c-5.2-10.1-10.9-19.9-15.9-30.1c-7.1-14.6,2.3-28.6,19.4-28.6
		c5.8-0.3,10.9,1.8,14.1,7.5C1916.1,303.3,1921.9,314,1927.8,324.6z M1921.5,278.3c0-7.9,7.2-16.5,15.6-19.1
		c8.1-2.5,16.3-0.3,20.6,6.6c6.5,10.6,12.3,21.6,18.4,32.4c2,3.5,1.8,6-2.1,8.1c-8.4,4.3-16.6,8.8-24.8,13.3
		c-2.4,1.3-5.3,3.1-7.2-0.4c-7-12.5-15.4-24.3-19.9-38.1C1921.7,280.1,1921.6,278.9,1921.5,278.3z M2053.9,324.9
		c-3.7,16.7-10.6,32.1-21.1,45.6c-23.8,30.5-55,46.2-103.1,46.5c-16.5,0.6-39.3-7.4-59.8-22.6c-4.8-3.6-12.3-6.2-7-14.7
		c4.8-7.6,15-10.6,22.6-6.4c7.5,4.2,12.9,10.8,15.6,18.7c2.5,7.3,6.1,5.3,10.6,2.7c4.3-2.4,10-4,4.7-10.8c-2.9-3.7-5.7-7.5-7.9-11.7
		c-4-7.6-2.4-13.8,4.4-18.9c16.2-12,27.5-8.7,36.1,10.7c1.2,2.8,1.1,8,5.6,6.7c4.3-1.2,8.2-4.4,12-7c0.5-0.3,0-2.7-0.6-3.7
		c-1.5-2.7-3.2-5.2-5-7.6c-8.8-11.6-8.3-21.3,1.8-29.7c8.6-7.2,20-5,28.9,5.9c2.7,3.4,4.7,7.5,6.7,11.4c1.4,2.8,2.6,6.3,6.5,3.6
		c3.6-2.5,10.7-2.9,8.5-10.1c-1.2-4-3.9-7.2-6.6-10.4c-6-7-5.3-16.4,1.4-24.2c6.5-7.4,15-9,22.9-3.6c5.7,3.9,10.8,8.7,14,15
		c1.7,3.4,1.3,8.1,7.9,7.6C2056.5,317.9,2054.4,322.7,2053.9,324.9z M2053.3,277.9c3.4,6.2,3.2,11.5,2,18.3
		C2049.9,290,2050.1,284.7,2053.3,277.9z M2018.5,221.1c0.5-1.5,1.2-3.2,3.8-3.2c0.8,0.6,1.9,1.4,2.9,2.3
		c11,11.2,18.9,24.3,24.2,39.1c1.9,5.3-2,6.6-5.4,8.6c-3.6,2.1-5.4,0.6-7.1-2.6c-5.6-10.8-11.3-21.5-17-32.2
		C2018,229.3,2017.1,225.3,2018.5,221.1z M2006.7,240.6c6.2,10.1,11.7,20.6,17.5,31c1.9,3.4,2.1,6-2,8.1c-9,4.8-17.9,9.8-26.8,14.9
		c-3.9,2.3-5.4,0-6.9-2.9c-5.2-10-9.9-20.4-16-29.9c-8.8-13.5,4.5-30.6,19.3-29.7C1998.5,231.6,2003.5,235.3,2006.7,240.6z
		 M1873.9,203.1c38.8-23.7,79.5-28.8,121.2-6.5c1.9,1,4.7,1.4,5,3.9c0.4,2.8-2.5,3.3-4.3,4.3c-53.8,29.5-107.7,58.9-161.6,88.3
		c-1.7,0.9-3.5,1.6-5.2,2.7c-5.8,3.6-8.1,1.9-7.4-4.8C1825.7,253.8,1841.4,222.9,1873.9,203.1z"/>
	<path class="st0" d="M2189,350.6c-68.8,0.3-122.4,53.6-122.5,122.9c-0.2,70.1,53.9,123.5,123.6,123.3
		c71.6-0.1,123.3-58.5,122-122.7C2313.8,408.6,2260.8,350.3,2189,350.6z M2270.3,553.4c-4.9-2.4-2.4-6.5-2-10.2
		c2.9-28.9-5.1-55.3-19-80.2c-3.8-6.7-8.2-13.2-12.6-19.5c-3-4.2-1.4-5.3,2.8-5.3c7.4,0,14.2,2.2,20.9,4.9c1.8,0.7,3.6,1.9,5.3,0
		c1.7-1.8,0.4-3.6-0.4-5.4c-3.9-9.4-9.7-17.3-19.4-23.1c4.7-2.9,8.1-4.8,11.1-7.1c1.7-1.4,5.1-2.3,4-5.5c-0.8-2.6-3.5-3.4-5.9-4.1
		c-6-1.8-12-1.8-18-0.3c-2.1,0.5-4.2,1.1-6.3,1.7c-2-2.8,0-5,0.7-7.2c0.7-1.9,3.4-3.8,1.1-5.9c-2.5-2.3-4.6,0.5-6.5,1.8
		c-4.3,3-8.6,6.1-12.4,9.7c-3.2,3-4.6,2.7-6.6-1.1c-1.9-3.7-3.3-10.2-8.1-9.1c-5.7,1.2-5.6,8.2-6.6,13.2c-0.5,2.4-0.4,5-0.1,7.5
		c0.5,4.2-1.3,6.1-5.4,6.5c-5.4,0.6-9.8,3.6-14.4,6.2c-1.4,0.8-2.9,1.9-2.6,3.9c0.3,2,2.2,2.4,3.7,2.8c1.9,0.5,3.9,0.5,5.7,1.1
		c4.2,1.4,9.2,2.1,12.2,4.8c4,3.6-1.8,7.2-2.2,11.1c-0.6,5.5-1.1,11,0.4,16.5c0.6,2.1,1.4,4.5,4.2,4.5c2.4,0,2.7-2.4,3.5-4
		c1.3-2.6,1.4-6.9,4.9-7c2.9-0.1,3.3,4,4.8,6.2c4.2,6,8.7,11.5,15.3,14.9c1.9,1,3.9,2.7,6.1,1.1c2.3-1.7,0.8-4.1,0.3-6.1
		c-2.3-9-6-17.7-5.7-27.3c0.9-0.1,1.7-0.3,1.8-0.1c21.6,31.9,31.7,66,20.9,104.3c-1.2,4.3-3.3,7.3-7.9,8.7
		c-9.3,2.7-18.5,5.6-27.7,8.7c-3.4,1.1-6.1,1.1-7.3-2.8c-5.3-17.7-15.2-32.5-28.6-45.1c-0.3-0.3-0.2-1-0.3-2
		c6.3-1.3,11.9,1.2,17.5,3.2c2.1,0.8,4.3,2,6.2,0c1.9-1.9,0.7-4.1-0.1-6.2c-3.4-8.9-9.6-15.4-18-21.2c4.2-2.9,8-5.3,11.6-8
		c5.1-3.7,4-6.7-1.5-8.5c-7-2.3-14.1-1.9-21.2,0.1c-1.7,0.5-3.9,2.1-5.3,0.1c-1.3-1.8,0.3-3.7,1-5.4c0.9-2.1,4.2-4.2,1.8-6.5
		c-2.6-2.5-5,0.4-7.3,1.7c-1,0.5-1.9,1.2-2.7,1.9c-4,3.4-7.7,9.2-12,9.6c-4.4,0.4-5.2-7.5-8.6-10.9c-3.1-3.2-5.5-1.4-7.1,1.8
		c-2.5,5.3-3.8,11.2-3.7,16.9c0.1,4.1-0.6,5.7-4.6,6.9c-4.5,1.3-8.6,3.8-12.8,5.9c-1.9,1-4.6,1.6-4,4.5c0.5,2.3,2.9,2.4,4.7,2.9
		c4,1.2,8.1,2,12,3.1c5,1.4,7.4,3.6,4.3,9.5c-3.5,6.5-3.7,13.8-1.1,20.9c0.7,2,1.3,4.7,4.1,4.4c2.3-0.2,2.6-2.6,3.3-4.3
		c1-2.5,1.4-6.3,4.3-6.6c3.8-0.5,3.8,4.1,5.4,6.4c4.6,6.4,9.7,12.1,16.9,15.6c4.5,2.2,6.5,0.8,5.2-4.1c-2-8-4.3-16-6.3-24.1
		c-0.5-1.8-1.1-4.2,0.9-5.3c2.2-1.3,3.5,1,4.8,2.3c12.3,13,20.2,28.2,22.3,46.2c0.3,2.5,0.7,4.9,1,7.4c1.1,8.2-5.6,15.5-13.7,14.4
		c-28.5-4.1-52-17.4-70.8-39.3c-27.4-31.7-34-68.3-24.2-108c12.1-49.1,59.2-84.4,109.8-85.9c53.3-1.6,100.5,33.4,115.5,81.8
		c12.5,40.1,4.4,77.1-21.2,110.2C2278.1,551.5,2275.5,556,2270.3,553.4z"/>
	<path class="st0" d="M1713.6,433.3c0-5.6,0-11.2,0-16.8l0,0l0,0c-0.1-3.6,0.2-7.2-0.4-10.8c-8.4-54.5-55.7-103.2-117.8-102.3
		c-2.8,0-5.5,0-8.3,0l0,0l0,0c-4.7,0.1-9.5-0.2-14.1,0.5c-64.1,9.7-114.5,69.4-104,138.3c4.9,32.4,19.7,59.4,45.1,79.6
		c44,35,105.4,35.7,150.3,2.2C1694.7,501.5,1712,471.6,1713.6,433.3z M1651.8,516c-2.3-16.6-8.8-31.8-14.5-47.3
		c-4.6-12.5-9.4-24.9-14.5-37.1c-1.7-4.1-1-6.2,2.2-9.1c6.3-5.8,14.1-8.7,21.6-12.2c7.9-3.7,12.4-9.3,12.1-18
		c-0.2-5.7,2-8.2,7.5-9.9c4.6-1.4,8.6-4.9,12.6-7.8c1.8-1.3,3.3-3.2,2.1-5.7c-1.2-2.3-3.3-1.2-5.2-1.1c-6.3,0.3-11.1,3.2-16.3,6.8
		c-15,10.3-31.8,16.6-50.3,16.7c-5.9,0-12.7,5.1-17.4,0.1c-3.7-4-5.1-10.3-7.2-15.7c-2.1-5.6-5.5-8.1-11.5-6.2
		c-5.8,1.8-8.8,6.1-6.6,11.4c6.2,15.4,1.3,23.9-13.6,31c-13.9,6.6-26.6,16-41.9,19.3c-7.2,1.6-15,0.7-20.5,7
		c-1.4,1.6-4.4,2.4-3.2,5.1c1.1,2.5,3.9,1.3,6,1.5c4.6,0.4,8.8-0.9,12.9-2.7c5.2-2.2,9.4-1.7,13.6,2.4c7.3,7,15.1,9.5,24.6,3.1
		c6.3-4.3,13.9-3,21.1-2.6c3.8,0.2,4.9,3.5,5.4,6.5c3.6,19.5,16.7,34.5,24,52.3c4.3,10.5,7.6,21.4,11.4,32.1
		c1.6,4.4-1.4,5.1-4.6,5.9c-13.2,3.1-26,0.1-38.5-3c-47.6-11.6-83.9-52.4-88.6-100.8c-6.4-66,38-117.3,98-127.7
		c37.5-6.5,70.9,3.1,99.1,28.7c20.6,18.7,37.8,49.8,37.2,86c-1.1,38.8-16.4,70.5-47.4,94.3C1655.6,523.8,1652.8,522.9,1651.8,516z"
		/>
	<path class="st0" d="M1106.7,965c3.8,0,7.7,0,11.5,0c-31-19.2-51.3-46.2-57-82.6c-5.2-33.5,1.7-64.5,23-91.5
		c27-34.3,63-48.3,106-45c49.1,3.8,95.2,47.7,102.7,96.7c5.3,34.5-2.7,65.3-23.5,93c-1.5,2-3.2,3.8-4.9,5.6c-1.9,2-4.1,2.7-6.7,1.5
		c-2.7-1.3-3.3-3.5-2.9-6.2c5.9-38.8-8.5-71.6-29.6-102.6c-1.2-1.7-4-3.2-2.2-5.5c0.9-1.1,3.6-1.1,5.4-1c6.7,0.2,13,2.3,19.2,4.8
		c1.8,0.7,3.6,1.9,5.4,0.1c1.7-1.8,0.4-3.6-0.3-5.4c-3.8-9.4-9.7-17.3-19.2-23.1c4.4-2.9,8.1-5.1,11.5-7.7c5.3-4.2,4.9-6.5-1.6-8.8
		c-8.5-3.1-16.9-1.8-25.1,1.3c-2.1-3.4,0-5.7,1-8.1c0.7-1.7,2.7-3.4,0.8-5.2c-2.2-2.1-4.1,0.1-5.8,1.3c-4.5,3.3-9,6.5-13,10.2
		c-3.1,2.9-4.6,2.9-6.6-1c-1.9-3.7-3.3-10.2-8-9.2c-5.8,1.2-5.6,8.1-6.7,13.1c-0.5,2.4-0.4,5-0.1,7.5c0.4,4.1-1.2,6.1-5.3,6.6
		c-5.4,0.6-9.8,3.6-14.4,6.2c-1.4,0.8-2.9,1.9-2.6,3.9s2.1,2.5,3.7,2.9c2.1,0.6,4.4,0.7,6.5,1.3c12.5,3.3,12.3,3.2,9.4,15.6
		c-1.3,5.4-1.3,11,0.3,16.4c0.6,2.1,1.4,4.5,4.1,4.6c2.5,0,2.8-2.2,3.6-4c0.6-1.5,1.3-3.1,2-4.5c1.9-3.8,3.7-3.5,5.6,0.1
		c4,7.4,9.2,13.9,16.6,18.2c2.1,1.2,4.4,3.3,6.8,1.6c2.7-1.9,0.7-4.6,0.1-6.9c-2.2-8.7-5.7-17.2-5.5-27.5c5.2,2.9,7.1,7.5,9.3,11.6
		c13.6,26.1,21.3,53.3,16.4,83.1c-2.3,14.2-4.5,17.1-18.8,21.3c-6.6,1.9-13.2,4.1-19.7,6.5c-4,1.5-6.4,0.6-7.7-3.4
		c-5.2-17.1-14.6-31.5-27.7-43.6c-0.5-0.5-0.7-1.4-1.2-2.6c6-1.6,11.1,1,16.2,2.5c2.6,0.7,5.3,3.2,7.7,0.7c2.7-2.8,0.1-5.7-1-8.4
		c-3.2-8-9.4-13.5-16.8-19c4.2-3,8.2-5.6,12.1-8.5c4.2-3.2,3.5-5.9-1.2-7.7c-7.3-2.8-14.6-2.3-22-0.2c-1.7,0.5-3.8,2.1-5.3,0.2
		c-1.4-1.8,0.2-3.6,1-5.4c0.9-2.1,4.1-4.2,1.9-6.5c-2.5-2.6-5.2,0.1-7.3,1.6c-3.2,2.2-6.7,4.3-9,7.2c-5.2,6.7-8.2,4.9-11.4-1.7
		c-1.3-2.7-2.2-7.1-6.6-6.4c-4,0.6-5.2,4.9-5,7.8c0.7,14.3-7.1,21.3-19.5,25.2c-1.9,0.6-4.6,1.6-4.1,4.4c0.4,2.3,2.9,2.3,4.6,3
		c1,0.4,2.1,0.5,3.2,0.7c14.4,2.9,14.5,3,11.5,16.4c-1.3,5.8-1.4,11.5,0.9,17c0.7,1.7,1.3,3.9,3.8,3.8c2-0.1,2.4-2,3.1-3.5
		c0.6-1.3,0.9-2.6,1.5-3.9c0.9-1.6,1.3-4,3.8-3.8c1.9,0.1,2.4,2.1,3.2,3.5c4.1,7.8,10,13.9,17.6,18.2c1.6,0.9,3.5,2.3,5.4,1
		c2-1.4,1-3.6,0.5-5.4c-1.9-7.5-4-15-5.9-22.5c-0.5-2.1-1.5-4.8,0.6-6.1c2.4-1.5,4,1.3,5.3,2.8c12.3,13.4,20.5,28.7,21.8,47.2
		c0.2,2.2,0.9,4.3,1.3,6.5l0,0c24.5,0,49,0,73.6,0c42.1-31.7,60.5-73.7,51.1-125.6c-10.9-60.1-62.3-100.1-122.7-99.7
		c-33.2,0.2-62.1,13.3-85.9,37.7c-41.9,42.8-46.8,111.2-10.7,158.9C1086.5,947.1,1096.9,955.7,1106.7,965L1106.7,965L1106.7,965z"/>
	<path class="st0" d="M1076,223.7c68.4,0,123.8-54.6,123.8-122c1.2-65.6-56.7-124.5-122.5-124.1c-68.2,0.4-123.6,55-123.6,122.5
		C953.7,168.3,1008.5,223.7,1076,223.7z M1055.2-14.8c35.6-5.9,67.7,1.4,95.8,25.5c21.1,18,34.8,40,40.7,66.7
		c8.1,37.1-1.6,69.9-25.2,99.2c-6.2,7.6-13.6,13.7-21.2,19.7c-4.7,3.7-7.2,1.6-8-3.2c-4.8-29-18.1-55-28-82.2
		c-3.3-9.1-2.7-11.9,6-16.8c6.5-3.7,13.3-6.9,20.1-10c5.1-2.3,7.9-6,7.9-11.6c0-7.4,1.7-13.3,10.4-15.3c3.6-0.8,6.7-3.8,10-5.8
		c1.8-1.1,3.1-2.5,2.4-4.7c-0.7-2.3-2.9-2.2-4.8-2.4c-5.2-0.4-10,0.9-14,4.2c-13.9,11.5-30.2,17-47.8,18.7
		c-6.9,0.7-14.3,3.7-20.4,1.8c-6.7-2.1-6-11.5-9.3-17.4c-2.5-4.5-5.3-8-11-6.4c-5.8,1.7-7.7,6.1-6.7,11.7c0.9,5.2,2.1,10.3,3.5,15.4
		c0.8,3,1,5.5-2.3,7c-16,7-29.2,19.2-46,24.7c-5.7,1.9-11.3,4-17.7,4c-5,0-9.9,1.6-13.2,5.9c-1.4,1.8-5.5,1.9-4,5.2
		c1.2,2.5,4.8,2.3,6.8,1.5c12.9-4.7,24.7-4.3,35.5,5.5c2.6,2.4,6.9,1.4,10.3-0.3c2.5-1.3,4.9-2.6,7.5-3.6
		c14.3-5.7,22.2-1.7,26.3,12.8c2.4,8.4,6.4,16,11,23.7c10,16.8,17.4,35.1,22.5,54.2c0.8,3-0.6,3.9-3.1,4.6c-4.1,1.1-8.2,1.5-11,1.4
		c-62.7-1.4-111.2-46.2-118-105.1C952.8,51,998.5-5.4,1055.2-14.8z"/>
	<path class="st0" d="M2459.6,800.6c68.3,0,123.5-54.7,123.5-122.3c1.1-65.3-56.7-124.3-122.7-123.9c-68,0.5-123.3,55.1-123.4,122.8
		C2337,745.4,2391.9,800.6,2459.6,800.6z M2439.7,561.7c56.2-9.4,107.5,20.6,129.7,74c5.8,14,7.7,28.7,8.8,43.8
		c-2.6,37.8-17.5,69.2-48,92.6c-4.5,3.4-8.6,5-9.8-2.6c-3.7-23.5-13.6-44.8-22-66.7c-1.9-4.9-3.7-9.8-5.7-14.7
		c-3.7-9.4-2.9-12.3,6.2-17.4c6-3.4,12.3-6.5,18.6-9.3c6-2.6,9.1-6.8,9-13.4c0-6.8,2-12.2,10-13.9c3.6-0.8,6.7-3.8,10-5.7
		c1.7-1,3.3-2.3,2.7-4.6c-0.5-2.4-2.6-2.5-4.6-2.7c-5.5-0.4-10.5,1.1-14.7,4.5c-14.7,11.9-31.8,17.2-50.4,18.7
		c-1.9,0.2-3.9,0-5.8,0.2c-13.9,1.4-13.8,1.4-19.2-11.9c-1.2-3-2.7-6.2-4.8-8.6c-2.3-2.6-5.7-3.2-9.1-1.5c-3.5,1.8-5.6,4.3-5.6,8.4
		c-0.1,6.2,2.4,11.9,3.5,17.9c0.6,2.8,1.5,5.6-2,7.1c-19,8.7-35,23.7-56.3,28c-8,1.6-16.7,0.7-22.7,8.1c-1,1.2-3.3,1.6-2.5,3.7
		c0.7,1.8,2.7,1.7,4.3,1.8c5.1,0.5,10-0.6,14.5-2.7c5.9-2.9,10.8-1.4,15,2.9c7,7,14.6,8.5,23.2,3c6.5-4.2,13.9-3.1,21-2.9
		c3.3,0.1,4.9,2.4,5.8,5.1c1.3,3.9,2.8,7.9,3.5,11.9c2.5,14,13,24,18.4,36.7c5.2,12.3,9.2,24.9,14,37.2c1.7,4.2-0.6,5.2-4.1,6
		c-13.7,2.9-27.1,0.2-40.2-3.1c-48-12-81.6-52.3-87.5-101.5C2336,628.4,2381.1,571.6,2439.7,561.7z"/>
	<path class="st0" d="M1213.6,293.4c2.1,1.6,3.3,4.4,4.5,6.9c11.5,23.3,22.6,46.8,34.3,70.1c3.4,6.8,4.1,18.1,10.7,19.4
		c6.5,1.3,14.5-5.4,21.9-8.3c5.2-2.1,6.4-4.7,3.7-10.1c-10.6-21.6-20.7-43.5-31.1-65.2c-5.8-12-3.9-18,8.1-24.8
		c8.3-4.7,12.7-3.8,16.8,4.7c10.6,21.6,21,43.3,31.1,65.2c6.4,13.9,6.1,14,19.7,8.4c2-0.9,4-1.8,6-2.8c10.1-4.9,10.1-4.9,5.3-14.8
		c-10-20.7-19.6-41.6-30-62.1c-4.5-8.8-2-15.1,4.1-21.4c10-10.2,15.4-9.5,21.7,3.5c11.2,23.2,22.4,46.4,33.2,69.7
		c2.6,5.7,5.2,6.8,10.6,3.6c5.2-3.1,10.7-5.9,16.4-8c5.2-1.9,5.2-4.5,3-8.8c-3.9-7.6-7.3-15.6-11.2-23.2
		c-10.6-20.7-18.8-42.6-30.8-62.5c-5.5-9.1-13.7-13.5-24.4-12.4c-18,1.8-31.2,10.5-38.5,27.3c-1.9,4.5-3.7,6.4-8.5,3.8
		c-15.5-8.3-36.8,3-44.9,14.2c-3.9,5.3-6.4,9.9-12.3,2.5c-0.4-0.6-1.5-0.6-2.6-1.1c-1.3,0.8-2.8,1.5-4,2.5c-4,3.3-7.9,7-12,10.2
		C1208.9,284.1,1206.9,288.2,1213.6,293.4z"/>
	<path class="st0" d="M792.3,509.7c17.6,11.6,47.7,0,57.4-15.7c5.8-9.4,10.5-9.9,19.1-6.6c3.2,1.3,8.5,2.5,10-2.5
		c2.2-7.2,6.3-14.2,4.8-22.2c-0.1-0.5-1.3-1-2-1.2c-11.8-3-15.8-12.9-20.3-22.5c-6.8-14.5-13.3-29.2-20.4-43.6
		c-7.8-15.9-20.6-21.4-37.7-17.7c-18.2,3.9-31.7,14.8-44.1,28c-14.5,15.5-14.5,15.4,2.5,27.1c5.9,4.1,9.2,3.8,13.1-2.5
		c5.8-9.6,13.5-17.5,24.2-21.9c6.7-2.8,12.2,0.6,16.7,9.1c4,7.5-2.1,8.2-6.1,10.5c-5.7,3.4-11.7,6.3-17,10.3
		c-11.4,8.5-20.8,18.5-19.9,34.3C772.4,487.7,780.9,502.3,792.3,509.7z M809,457.5c4.1-5.1,10-7.6,15.6-10.5c3-1.5,4.5-0.4,5.7,2.4
		c1.9,4.6,4,9,6.1,13.5c4.3,9.3-4.3,22.1-15.8,21.8c-5.6-0.5-10.1-4.4-12.8-10.1C805,468.8,804.7,462.9,809,457.5z"/>
	<path class="st0" d="M1768.2,22.3c-10.2,12-10,12.3,3.5,21.3c0.5,0.3,0.9,0.6,1.4,1c6,5.6,10.4,5.1,14.8-2.5
		c4.6-7.9,10.9-14.5,19.3-18.9c10-5.3,15.4-3.4,20.7,6.6c2.4,4.7,2.1,7.5-3.1,9.7c-7.2,3-13.9,6.9-20,11.7
		c-11.2,8.7-20.7,18.6-19.7,33.8c0,23.9,19,44.5,39.1,42.1c14.3-1.7,28.6-6.3,36.6-18.7c6.4-9.8,12.1-12.5,22.5-7.9
		c2.6,1.2,7.3,1.4,8.3-3c1.7-7.4,6.5-14.1,4.5-22.2c-0.1-0.5-1.3-0.9-2.1-1.1c-11.8-3.1-15.7-13.1-20.1-22.6
		c-6.9-14.8-13.5-29.7-20.7-44.3c-7.4-14.8-20.4-20.3-36.7-16.9C1795.8-5.6,1781.1,7.1,1768.2,22.3z M1843,62.4
		c1.8,4.3,3.8,8.5,5.8,12.8c4.4,9.4-3.7,22.1-15.3,22.1c-5.5-0.3-10.1-4.2-13-9.8c-2.9-5.7-3.4-11.6,0.8-17.1s10.3-8.1,16.2-11
		C1840.8,57.8,1841.9,59.9,1843,62.4z"/>
	<path class="st0" d="M1465.7,298.6c24.6-6.7,39.9-26.6,40.1-51.8c0.1-19.1-7.3-35.5-18-50.8c-13.8-19.9-38.6-28.7-60.7-21.7
		c-26,8.2-39.5,26.3-39.5,52.9c0,17.9,6.1,34.7,18.2,50.6C1421.5,298.2,1441.6,305.1,1465.7,298.6z M1431,199.7
		c7.9-2.6,15.2-0.8,20.1,5.7c11.1,15,19.6,31.4,22.6,50.1c1.1,7.2-1.9,13.2-8.1,16.9c-6,3.6-13,4.9-18.5-0.4
		c-16.1-15.2-23.5-34.9-28-54.2C1419.8,208.1,1423.2,202.2,1431,199.7z"/>
	<path class="st0" d="M1488,165.4c2.5,5.3,4.9,6,10,3.3c13-6.6,26.3-12.6,41.1-19.5c-5.5,30.3-10,58.7-15.9,86.8
		c-2.1,10.1,1.8,17.8,5.3,26.1c1.4,3.3,3.8,2.4,6.2,1.2c24.7-11.8,49.4-23.6,74.2-35.4c3.1-1.5,4.7-3.3,3.8-7.2
		c-0.7-3.2-0.4-6.6-0.7-9.9c-0.9-8.4-2.2-9.1-9.7-5.5c-13.7,6.5-27.4,13.1-41.9,20c0.2-3.5,0-6,0.4-8.3c3-18.5,6.5-37,9-55.6
		c1.9-14.4,8.4-28.8-1-43.5c-3.5-5.5-5.9-6.5-11.4-3.8c-20.6,10.1-41.4,19.9-62.1,29.9C1480.8,151.1,1481,151.1,1488,165.4z"/>
	<path class="st0" d="M1615,41.1c15,26.5,27,54.6,40.3,81.9c8,16.4,15.2,33.2,24.8,48.8c5,8.1,13.1,10.5,21.4,11.9
		c9.8-0.9,18.2-4.6,25.7-9.9c2.6-1.8,7.6-4.2,4.9-8.2c-3.3-4.8-8.2-13.2-12.5-11.8c-11,3.5-13.6-3.9-16.6-10.2
		c-13-26.6-25.3-53.5-38.1-80.2c-6.9-14.5-14.2-28.8-21.4-43.1c-2.3-4.6-4.8-7-9.8-2.1c-5.1,5-11,9.3-16.9,13.3
		C1612.2,34.6,1612.7,37.1,1615,41.1z"/>
	<path class="st0" d="M775.5,532.1c2.3-1.8,8.4-3.7,5.2-7.7c-3.8-4.6-6.8-13.4-13.2-12.1c-9.6,1.9-12.6-3.2-15.7-9.5
		c-15-31.2-29.7-62.4-44.6-93.6c-4.8-10-9.8-19.9-14.8-29.7c-2.7-5.4-5.8-7.8-11.2-2.2c-3.6,3.7-8,6.9-12.3,9.7
		c-6.8,4.4-8.2,8.9-3.5,16.3c7.8,12.1,13.2,25.5,19.5,38.4c14,28.6,26.5,57.9,41.7,85.8c5.3,9.7,13.7,14,26.5,13.9
		C760.4,541.4,768.5,537.7,775.5,532.1z"/>
	<path class="st0" d="M1765.1,154c7.7,0.1,15.8-3.6,22.8-9.1c2.4-1.9,8.4-3.8,5.3-7.7c-3.7-4.7-6.9-13.5-13.1-12.2
		c-10.7,2.2-13.3-4.2-16.5-10.9c-15-31.2-29.7-62.5-44.6-93.7c-4.8-10-9.9-19.8-15-29.6c-2.4-4.6-5.2-5.7-9.6-1.6
		c-4.6,4.3-9.8,8.1-14.9,11.8c-5.2,3.8-6,7.6-2.5,13.3c8,12.7,13.8,26.5,20.3,39.9c14,28.6,26.5,57.8,41.7,85.8
		C1744.2,149.7,1752.6,154,1765.1,154z"/>
	<path class="st0" d="M1305.1,102.6c-10-0.5-19.9,6.4-24.2,17.1c-1.4,3.4-2.4,4.9-6.9,4.8c-20-0.2-32.3,20.4-22.6,37.4
		c4.2,7.4,10.7,12.6,19,15.2c10.6,3.4,21.6,4.7,29.9,5c19.2-0.3,17.5,2.5,23.4-15c1.9-5.8,3.7-11.6,5.2-17.5
		c2.2-8.9,3.3-17.9,0.4-27C1325.8,111.9,1315.6,103.2,1305.1,102.6z"/>
	<path class="st0" d="M2221,924.5c14.8,6.1,30.5,7.6,46.3,7.4c3.6-0.1,6.4-1.4,7.9-4.9c5.5-13.6,10.5-27.4,10.4-42.4
		c0-16.9-6.6-27.4-19.4-31c-13.7-3.8-20.5,0.1-30.6,17.9c-1.4,2.4-2.9,2.5-5.3,2.6c-14.3,0.4-23.9,7.8-26.2,19.5
		C2201.6,906.6,2208.3,919.3,2221,924.5z"/>
	<path class="st0" d="M1850.3-39.8c14.8,6.1,30.4,7.6,46.3,7.3c3.7-0.1,6.4-1.4,7.8-5c5.5-13.6,10.5-27.4,10.4-42.4
		c0-17.6-7-27.9-21.1-31.3c-12.6-3-21,2-28.7,17.6c-1.3,2.7-2.7,3.3-5.6,3.4c-14.2,0.3-23.9,7.8-26.1,19.5
		C1830.9-57.6,1837.5-45,1850.3-39.8z"/>
	<path class="st0" d="M883.8,355c4,0,6.8-1.6,8.3-5.5c5.3-13.4,10.2-26.9,10.1-41.6c0-0.8,0-1.7,0-2.5c-0.1-15.8-7.6-26.1-21.6-29.3
		c-12.1-2.8-21,2.7-28.1,17.5c-1.2,2.6-2.3,3.6-5.4,3.7c-15,0.5-24.4,7.8-26.5,20.1c-2.3,13.4,4.9,25.7,18.3,30.8
		C853.4,353.7,868.5,355.1,883.8,355z"/>
	<path class="st0" d="M1499.2,869.3c67.5,0.1,124.9-57.3,122.9-122.8c1.6-66.5-52.8-123.7-122.4-123.4c-71,0.3-122.3,54.5-123.3,123
		C1375.4,815.9,1434.2,869.3,1499.2,869.3z M1499.7,629.3c63.1-2.4,118.1,53,117.5,118.1c-0.6,64.4-53.3,116.4-119.1,116.4
		c-65.1,0-116.4-55.4-116-118.1C1382.5,683.3,1436,626.8,1499.7,629.3z"/>
	<path class="st0" d="M1629.3,204.8c5,10.5,5,10.5,15.9,5.9c4.8-2,9.6-4.4,14.3-6.6c2-1,3.9-2.2,3.7-5.4c-0.2-0.6-0.5-1.6-1-2.6
		c-16.5-34.7-33.1-69.4-49.5-104.1c-2.1-4.5-4.9-4.6-8.6-2c-5.5,3.8-10.9,7.6-16.5,11.2c-4.6,2.9-5,5.9-2.5,10.9
		C1600.1,142.7,1614.6,173.8,1629.3,204.8z"/>
	<path class="st0" d="M1058.3,511.3c68.1,0,123.2-54.8,123.2-122.8c0-68.1-54.9-123.2-122.8-123.3c-67.5,0-123.2,54.7-123.2,121.2
		C935.4,456.1,989.6,511.3,1058.3,511.3z M1057.7,270.3c67.7,1.8,118.4,51.6,118.4,118.2c-0.1,66.2-50.9,117.3-117.2,117.3
		c-67,0-117.7-50.3-117.9-117.3C940.8,321.7,991.7,272.7,1057.7,270.3z"/>
	<path class="st0" d="M2071,124c67.9,0,123-55.2,123-123.1S2138.9-122,2070.9-122c-67.3,0-122.9,54.9-123,121.4
		C1947.9,68.8,2002.3,123.9,2071,124z M2070.4-117.1c67.8,1.9,118.3,51.9,118.1,118.4c-0.2,66.4-51.4,117.2-117.4,117.1
		c-67.2-0.2-117.6-50.7-117.7-117.6C1953.5-66.1,2004.6-114.8,2070.4-117.1z"/>
	<path class="st0" d="M728.3,613c-8.4-1.1-16.6,4-20.3,13.7c-1.4,3.7-3.5,4.1-6.8,4.5c-10.5,1.2-16.9,6.9-18.4,16.2
		s2.9,18.5,11.5,22.8c9.1,4.6,18.8,6.5,27.8,5.8c16.1,0.1,16.5,0.2,18.7-5.1c5.1-12.4,8.2-25.3,6.5-38.8
		C746,621.8,738.2,614.3,728.3,613z"/>
	<path class="st0" d="M2591.1,446.5c-23.5,19.2-49.9,30.9-80.6,29.8c-25.2-0.9-48.3-9.5-68.5-24.4c-24.6-18.1-39.6-42.6-45.4-72.8
		c-9.5-49.9,14.7-99.5,59.4-123.6c40.8-22,97.4-18.8,135.2,16.4l0,0c0-2.8,0-5.5,0-8.3l0,0c-1.7-1-3.4-1.8-5-3
		c-26.7-19.2-55.9-27.9-89-23.8c-60.6,7.6-108.1,57-108.3,120.7c-0.1,38.9,16.2,71.1,46.3,96.2c18.4,15.3,40.2,24.1,63.2,27.2
		c34.3,4.6,65.7-5.3,92.8-27.5l0,0C2591.1,451.1,2591.1,448.8,2591.1,446.5z"/>
	<path class="st0" d="M1720.6,238.9c-1.3,3.5-3.1,4.4-6.5,4.8c-10.8,1.2-16.9,6.5-18.6,15.8c-1.8,9.6,2.3,17.2,12.3,22
		c8.9,4.3,18.3,6.1,29.6,5.3c4.2-1.4,12.1,3.8,15.6-4.1c5.4-12.2,8.8-25.1,6.8-38.6c-1.5-10.2-9.7-17.6-19.5-18.5
		C1732.1,224.7,1724,229.9,1720.6,238.9z"/>
	<path class="st0" d="M1632.2,964.9c-7-17.6-12.3-35.6-11.7-54.7c2-65,54.5-113.2,114.7-115c54-1.6,108,36.7,118.7,96.5
		c4.6,25.5,1.2,50-10.6,73.2l0,0c2.2,0,4.4,0,6.6,0c0.7-1.8,1.3-3.6,2-5.4c19.1-49.9,10.4-95.2-26.2-133.3
		c-26.9-28-61.5-40.2-100.9-35.7c-84,9.6-134,98.8-97.8,174.4l0,0C1628.7,964.9,1630.4,964.9,1632.2,964.9z"/>
	<path class="st0" d="M1588.8-29.9c1.9,0.9,3.9,1,5.5-0.4c10-9.1,20.1-18.1,21.4-32.8c0.3-7.2-2.6-12.7-8.9-15.7
		c-6.1-2.9-12.4-2.7-18,1.4c-2.5,1.8-4.4,3.4-8.1,2.2c-8.7-3-15.8-0.5-20.3,6.1c-4.5,6.7-3.7,14.1,2,21.4
		C1569.2-39,1579-34.4,1588.8-29.9z"/>
	<path class="st0" d="M1959.5,934.4c1.9,0.9,3.9,1,5.5-0.4c10-9.1,20.1-18.1,21.3-29.1c-0.1-11.5-2.8-16.8-8.7-19.5
		c-6.1-2.8-12.4-2.7-18.1,1.4c-2.5,1.8-4.4,3.4-8.1,2.2c-8.7-3-15.8-0.5-20.3,6.1c-4.5,6.7-3.7,14.1,2,21.4
		C1940,925.3,1949.7,929.9,1959.5,934.4z"/>
	<path class="st0" d="M709.5,964.9c15.7-38.5,43.6-63.4,83.9-73.3c53.8-13.2,111.2,15.8,133.5,66.6c0.5,1.2,0.8,2.5,1.7,5.3
		c-19-6.9-36.7-16.3-56.2-6.7c2,0.3,5.1-0.2,2.1,3.3c-1.4,1.6-3.6,2.4-4.1,4.7l0,0l0,0c21.7,0,43.4,0,65,0
		c-19.6-57-78.6-92.3-141.5-78.9c-44,9.4-74.2,36.2-89.7,78.9l0,0C706,964.9,707.8,964.9,709.5,964.9z"/>
	<path class="st0" d="M2323.8,964.9c2.3-68.5,53.3-117.2,117.5-117.3c65.6-0.1,116,49.3,118.4,117.3l0,0c1.7,0,3.4,0,5.1,0
		c-0.6-68-55.1-122.7-122.3-122.8c-68.8,0-123.3,54-123.9,122.8l0,0C2320.4,964.9,2322.1,964.9,2323.8,964.9z"/>
	<path class="st0" d="M2506.6,103.4c-33.9-49.6-24.3-115,19.7-154.4c18.3-16.4,39.8-26.7,64.9-28l0,0c0-2.2,0-4.4,0-6.6
		c-15.7,2.4-31.3,5.8-45,13.8c-46,27-68.4,67.2-64.4,120.7c2.9,38.2,21.2,68.1,52.4,90.1c17.1,12.1,36.5,18.2,57,21.5
		c0-2.2,0-4.4,0-6.5C2554.9,150.6,2526.8,133,2506.6,103.4z"/>
	<path class="st0" d="M1602.1,65.8c0.1-10.7-9.9-21.4-20.1-21.3c-10.3,0.1-21,10.7-21,20.7c0.1,11.3,9.5,20.6,20.6,20.5
		C1592.4,85.6,1602,76.2,1602.1,65.8z"/>
	<path class="st0" d="M1389.5,965c38.7-21.7,77.4-21.4,116.1,0c3.4,0,6.8,0,10.3,0c-1-0.9-1.9-2-3.1-2.7
		c-23.2-13.5-48.2-21-75.1-18.3c-21,2.1-41.1,7.7-58.3,21.1l0,0C1382.7,964.9,1386.1,964.9,1389.5,965z"/>
	<path class="st0" d="M2162.6,965c18.8,0,37.6,0,56.5,0c-6.1-8.8-14.8-11.9-25.1-11.3C2182.4,954.3,2172.1,958.5,2162.6,965
		L2162.6,965L2162.6,965z"/>
	<path class="st0" d="M2079.4,964.9c-1.2-2.8-2.4-5.6-3.7-8.3c-2.9-6-6.3-7.8-11.7-2.1c-3.8,4-8.5,7-12.8,10.5l0,0
		C2060.6,965,2070,965,2079.4,964.9z"/>
	<path class="st0" d="M1713.6,433.3c2.4-5.6,2.4-11.2,0-16.8l0,0C1713.6,422.1,1713.6,427.7,1713.6,433.3z"/>
	<path class="st0" d="M776.6,225.9c2.1,4.2,5.9,6.6,11,5.2c5.1-1.3,8.6-3.9,8.3-9.8c-0.9-7.2-3.5-14-7.5-20
		c-2.9-4.4-7.7-5.3-12.5-2.5c-4.4,2.6-7.3,6.1-5.3,11.6C772.5,215.6,774.1,221,776.6,225.9z"/>
	<path class="st0" d="M686.6,182.5c-3.6-2.4-7.2-1.3-9.9,1.2c-4.8,4.5-9.5,9.1-12.5,15.2c-2,4.2-0.9,7.6,1.9,10.6
		c2.7,3,6.1,4.8,10.3,3.7c5.3-1.3,16-15,16.2-21.1C693.1,187.7,690.2,184.9,686.6,182.5z"/>
	<path class="st0" d="M725.5,236.8c6,1,10.3-1.6,11.8-7.6c1.2-4.8,1.7-9.7,2.4-14.2c0.3-6.9-2.6-11.6-9-12.2
		c-5.8-0.5-10.8,1.8-11.6,9c-0.5,4.6-1.9,9.2-2.2,13.8C716.6,231.5,719.3,235.8,725.5,236.8z"/>
	<path class="st0" d="M2523.4,270c31,24.8,42.7,39.2,41.3,51.1c-7.1-3.2-13.4-8.6-22.3-8.1c25.6,27.3,29.7,43.2,17.3,63.1
		c-11.8,18.8-37.5,30.8-53.7,22.1c13.6-4.2,21-13.6,26.2-25.5c1-2.3,3.6-4.2,5.8-5.8c5.5-3.9,3.4-7.8-0.4-10.8
		c-4.3-3.4-9.4-3.4-13.6,0.8c-4.3,4.3-8.4,8.8-12.6,13.2c-7.3,7.6-18.5,9-25.5,3.1c-2.3-2-4.9-4.2-3.5-7.7c1.2-3,4.2-2,6.6-2.1
		c2.2-0.1,4.3,0,7,0c-0.6-2.1-0.6-4.2-1.6-5.7c-5.1-7.2-3.3-13,2.4-19c3.2-3.3,6-7.3,6.8-12.2c0.9-5.6-0.9-8.8-7.1-7.5
		c-4.9,1-9.7,2.3-14.5,3.6c-5.5,1.6-7.6,0-7.3-6c0.5-9.6,2.1-19.1,4.5-29.7c-13.3,6-21.5,15.2-26.6,27.2c-1.6,3.7-3.5,6.8-6.9,9.1
		c-4.9,3.3-8.4,3.3-10.4-3.3c-1.9-6.3-4.6-12.3-7.2-19.2c-4.1,3.6-5.3,7.5-6.4,11.5c-7.3,27.4-2.4,53.6,7,79.6
		c17.9,49.9,65.3,73.5,116.1,55.2c18.6-6.7,33.8-17.2,46.4-32c0-36.6,0-73.3,0-109.9c-1.7-1.8-3.5-3.5-5-5.4
		C2573.1,282.9,2544.2,269.2,2523.4,270z"/>
	<path class="st0" d="M1765,961.1c20.9-8.1,41.8-16.1,62.7-24.2c5.7-2.2,9.5-6.1,8.5-12.6c-1-6.2-4.4-11-11.6-10.6
		c-8.1,0.4-11.6-4.1-14.2-11.1c-6.8-18.7-14-37.3-21.3-55.8c-4.5-11.3-11-14-22.3-9.7c-9.8,3.7-19.6,7.5-29.4,11.3
		c-23.7,9.1-47.6,18-71.2,27.5c-12.3,5-14.1,9.7-9.7,22c5,13.8,10.6,27.3,15.5,41.1c3,8.5,8,16.5,8.3,25.9c25.5,0,51,0,76.6,0l0,0
		C1759.1,962.7,1762.2,962.2,1765,961.1z M1694.3,950.2c-6.2-17.2-12.8-34.2-19.6-51.1c-2.3-5.7-1.1-8.3,4.7-10.5
		c28.5-10.7,56.9-21.6,85.2-32.8c6.6-2.6,9.9-1.5,12.4,5.5c6,16.7,12.7,33.1,19.1,49.6c0.6,1.5,1.1,3.1,1.5,4.4
		c0.5,3.7-2,4.3-4.4,5.2c-29.7,11.4-59.4,22.7-89.1,34.2C1698.6,957,1696.2,955.7,1694.3,950.2z M1745.1,957.1
		c-3.4-0.2-5.8,0.2-6.5-2c-0.9-2.8,1.9-2.8,3.6-3.4c6.4-2.4,12.9-4.8,19.4-7.1c1.6-0.6,3.5-1.2,4.4,0.7c1.1,2.2-0.3,3.9-2.2,4.7
		C1757.1,952.6,1750.5,955,1745.1,957.1z"/>
	<path class="st0" d="M2488.2,936c-6.8-19-13.7-38-20.7-56.9c-3.3-8.9-8.1-11.3-15.8-8.5c-24.7,8.9-49.5,17.8-74.2,26.7
		c-12.2,4.4-14,8.4-10,20.8c5.1,15.8,12.4,30.8,16.2,47l0,0c4.4,0,8.8,0,13.2,0c-3.5-9.6-6.6-19.4-10.6-28.7
		c-2.3-5.3-0.6-7.4,4.2-9.1c21.9-7.7,43.8-15.3,65.4-23.7c6.7-2.6,8.7-0.2,10.6,5.3c6.6,18.8,13.4,37.4,20.1,56.2
		c3.9,0,7.9,0,11.8,0l0,0C2495,955.3,2491.7,945.6,2488.2,936z M2422.2,903.8c-3.9,0.9-7.5,4.4-11.7,1.9c-1.9-1-2.1-3.2-1.5-5.2
		c1.2-4.4,13.8-8.5,17.4-5.7c1.1,0.9,1.8,2.1,1.6,3.9C2427.3,901.5,2425,903.1,2422.2,903.8z"/>
	<path class="st0" d="M2579.8-3.4c0.7,3.8,1.5,7.6,2.6,11.3c1.2,4.2-0.2,6.7-3.9,8.8c-10.3,5.9-20.3,12.3-30.6,18.2
		c-8.7,5-18.2,9-28.1,9.5c-7.4,0.3-12.5,3.4-17.9,7.4c-1.3,1-3.1,2.1-1.9,3.9c0.6,0.9,2.3,1.5,3.5,1.7c5.1,0.6,10-0.7,14.6-2.5
		c5.9-2.4,10.4-1.4,14.9,3.1c6.3,6.2,13.5,8.2,21.8,3c5.3-3.3,11.5-3.4,17.7-3.6c6.2-0.2,9.7,1.7,11.4,8c1.9,7.5,4.8,14.7,7.3,22
		c0-35.4,0-70.8,0-106.2l0,0C2579.8-16.7,2577.9-14.2,2579.8-3.4z"/>
	<path class="st0" d="M1389.5,965c38.7,0,77.4,0,116.1,0C1466.9,943.5,1428.2,943.2,1389.5,965z"/>
	<path class="st0" d="M1788.4,584.5c3.4-0.3,7,0.9,10-1.7c3.4-0.3,7,0.9,10-1.7c3.4-0.3,7,0.9,10-1.7c2.9-0.1,5.9,0.6,8.3-1.6
		c3.4-0.3,7,0.9,10-1.7c3.4-0.3,7,0.9,10-1.7c3.4-0.3,7,0.9,10-1.7c0-0.5,0-1.1,0-1.6c-3,2.1-7.1,0.7-10,3.2c-3.4,0.3-7-0.9-10,1.7
		c-3.4,0.3-7-0.9-10,1.7c-3.1,0.3-6.4-0.7-9.3,1.2c-0.2,0-0.5,0.2-0.7,0.5l0,0l0,0l0,0c-2.9,0.1-5.9-0.6-8.3,1.6
		c-3.4,0.3-7-0.9-10,1.7C1795,583.1,1791.4,581.9,1788.4,584.5c-6.3-0.1-12.5,0.7-18.3,3.2l0,0c2.8,0.6,5.6,1.2,8.4,1.7l0,0
		C1780.3,585,1785.6,587.3,1788.4,584.5z"/>
	<path class="st0" d="M834.4,963.3c7.7,0.3,12.9-0.8,17.9-3.1C846.9,959.9,841.6,960.9,834.4,963.3z"/>
	<path class="st0" d="M862.3,958.6c3.4-0.3,7,0.9,10-1.7C868.9,957.2,865.3,956,862.3,958.6z"/>
	<path class="st0" d="M872.3,956.9L872.3,956.9L872.3,956.9L872.3,956.9z"/>
	<polygon class="st0" points="852.3,960.2 852.3,960.2 852.3,960.2 	"/>
	<path class="st0" d="M852.3,960.2c3.4-0.3,7,0.9,10-1.7C858.9,958.8,855.3,957.7,852.3,960.2z"/>
	<path class="st0" d="M1874.8,569.5c-3.4,0.3-7-0.9-10,1.7c-2.8,0-5.5,0.1-8.3,0.1l0,0c0,0.5,0,1.1,0,1.6c2.9-0.1,5.9,0.6,8.3-1.6
		C1868.2,570.9,1871.8,572.1,1874.8,569.5c3.4-0.2,7,0.9,10-1.7l0,0l0,0C1881.4,568.2,1877.8,567,1874.8,569.5z"/>
	<path class="st0" d="M1341.5,593.1c-2.2-4.1-6.4-5.8-11.4-4.1c-4.8,1.6-7.6,4.4-7.3,9.7c0.6,6.7,3.5,12.7,6.6,18.5
		c2.5,4.7,6.7,6.6,11.9,4.5c5.3-2.1,8.2-6.1,6.8-11.7C1346.4,604.2,1344.3,598.4,1341.5,593.1z"/>
	<path class="st0" d="M1232.6,572.9c-7,1.2-10,9.1-14.9,14.8c-4.3,5-2.6,9.7,1.6,13.9c4.4,4.3,9.4,3.8,13.4,0.1
		c4.3-4.1,8.2-9,11.2-14.2C1247.9,580.7,1242.4,572.7,1232.6,572.9z"/>
	<path class="st0" d="M1283.2,593.9c-5.3-0.8-9.6,1.5-11.1,6.5c-1.7,5.8-2.9,11.8-2.5,18c0.4,5.5,3,8.8,8.6,9.3
		c5.6,0.5,9.9-1.4,11.2-7.4c1.1-5.4,2.1-10.8,3.1-16.3C1291.8,598.4,1288.7,594.7,1283.2,593.9z"/>
	<path class="st0" d="M1204.2,530.6c-5.9,2.6-13.3,3.2-19.1,7.9c-3.4,2.7-4.3,6.4-3.2,10.4c1.1,4,3.8,7.2,8.1,7.1
		c8.4-0.2,16.3-2.4,22.5-8.5c3.4-3.3,2.9-7.6,1.1-11.5C1211.9,532.4,1208.7,531,1204.2,530.6z"/>
	<path class="st0" d="M2160.1,803.2c2.1,4.2,6,6.3,11.2,4.8s8.3-4.3,7.6-12.9c-0.8-4.4-3.2-11.2-7.4-17.1c-2.8-4-7.3-4.9-11.9-2.4
		c-4.2,2.3-7.5,5.4-6,10.6C2155.3,791.9,2157.4,797.8,2160.1,803.2z"/>
	<path class="st0" d="M2037.9,737.5c4.9-1.2,8.1-4.6,8.1-10.1c0-7.7-5.6-12.3-13.2-10.1c-5,1.4-10,3.3-14.7,5.5
		c-6.3,2.9-7.7,11.8-2.5,16.6C2023.6,746.8,2030.7,739.3,2037.9,737.5z"/>
	<path class="st0" d="M2060.1,790c5.4-1.6,15.8-15.3,15.9-20.9c0.3-4.8-2.7-7.5-6.4-9.8c-3.4-2.1-6.7-1.1-9.2,1.1
		c-5.1,4.5-10,9.4-13,15.8c-2,4.2-0.5,7.6,2.3,10.5C2052.5,789.5,2055.9,791.2,2060.1,790z"/>
	<path class="st0" d="M2108.8,813.7c6,0.9,10.4-1.6,11.9-7.6c1.2-4.8,1.7-9.7,2.3-13.2c0.6-7.5-2.1-12-8-13.1
		c-5.1-1-10.3,0.7-11.9,6.4c-1.6,5.5-2.6,11.3-2.8,17.1C2100,808.7,2102.9,812.9,2108.8,813.7z"/>
	<path class="st0" d="M2342.7,199.9c-5.9,1.7-8.1,5.6-7.2,11.2c1.1,6.6,3.6,12.8,7.2,18.3c2.5,3.8,6.5,5,11,3.3
		c4.6-1.8,7.1-5.1,7.2-10.2c-0.9-5.9-3.4-11.5-6-17C2352.6,200.5,2348.5,198.2,2342.7,199.9z"/>
	<path class="st0" d="M2246.7,183.8c-2.3-0.3-4.8,0.9-6.7,3.1c-3.3,3.7-6.4,7.6-9.6,11.4c-4.1,5-3.1,9.6,1.1,13.9
		c4.6,4.7,9.8,4.2,14,0.2c4.3-4.1,8.1-9.1,11.1-14.3C2260.3,191.6,2255,183.9,2246.7,183.8z"/>
	<path class="st0" d="M2296.3,204.9c-5.4-1.2-9.8,1-11.5,5.8c-2.2,6.2-3.4,12.8-2.6,19.6c0.6,5.1,3.5,7.9,8.7,8.3
		c4.8,0.4,9.1-0.8,10.5-6c1.6-5.8,2.4-11.9,3.6-17.7C2304.2,209.6,2301.6,206.1,2296.3,204.9z"/>
	<path class="st0" d="M2217.8,142c-7.3,0.7-14.6,3-20.5,7.9c-3.6,3-4.2,7.1-2.5,11.3c1.5,3.8,4.6,6.4,8.9,6c7.2-0.7,14-2.8,19.9-7.2
		c2.6-1.9,3.9-4.6,3.7-7C2227.1,145.8,2223.7,141.4,2217.8,142z"/>
	<path class="st0" d="M1518.7,838c21-4.4,40.4-12.9,54.3-29.8c28.9-34.8,31.4-85.1,0.1-122c-13.3-15.7-42-29.7-62.3-28.9
		c30.9,24.7,42.7,39.2,41.3,51.1c-7.1-3.2-13.4-8.6-22.3-8.1c25.5,27.1,29.7,43.2,17.3,63.1c-11.8,18.9-37.7,30.8-53.6,22.1
		c13.6-4.2,21-13.7,26.1-25.5c1-2.3,3.6-4.2,5.8-5.8c5.5-3.9,3.3-7.8-0.5-10.8c-4.4-3.4-9.4-3.3-13.6,0.8
		c-4.3,4.3-8.4,8.8-12.6,13.2c-7.3,7.6-18.5,8.9-25.5,3c-2.1-1.8-4.4-3.8-3.7-6.9c0.9-3.9,4.3-2.6,6.9-2.8c2.2-0.2,4.3,0,7,0
		c-0.6-2.2-0.7-4.3-1.7-5.7c-5.1-7.2-3.3-13.1,2.5-19c2.6-2.7,4.4-6.4,6.1-9.8c1.4-2.8,1.8-6-0.4-8.7c-2.2-2.6-5.1-1.4-7.7-0.7
		c-4.3,1-8.6,2-12.9,3.2c-5.6,1.6-7.5-0.2-7.2-6.1c0.4-9.6,2.2-19.1,4.3-28.7c-11.5,3.8-20.8,13.1-26.4,26.4c-1.6,3.7-3.5,6.8-6.9,9
		c-5,3.4-8.4,3.1-10.4-3.4c-1.9-6.2-4.5-12.3-6.8-18.2c-2.6,0.5-2.9,1.9-3.5,3.2c-8.4,19-8.3,38.8-4.7,58.6
		c4.1,22.5,11.3,44.4,26.4,61.9C1456.7,838.7,1486.1,844.9,1518.7,838z"/>
	<path class="st0" d="M991.9,362.3c13.5,37.2,26.9,74.4,40.5,111.5c3.6,9.7,8.2,11.9,18,8.4c24.5-8.8,48.9-17.6,73.3-26.6
		c11.6-4.3,13.2-7.9,9.1-19.5c-9.9-27.9-20-55.7-30.1-83.5c-5.9-16.4-12-32.7-17.9-49.1c-2.1-5.7-4.8-10.7-12.7-11
		c0,0-0.9,0-1.6,0.3c-27,9.8-54.1,19.6-81.1,29.6c-6.8,2.5-8.8,8.1-6.4,14.9C985.9,345.6,988.9,353.9,991.9,362.3z M1077.1,459.7
		c-2.3-0.1-5.7-1.1-4.6-4.6c2-6.6,8.8-6.7,14.2-8.2c2.7-0.7,4.6,1.4,4.8,4.4C1091.7,455.2,1084.1,459.9,1077.1,459.7z M1025.6,323.7
		c1.2-4.4,13.7-8.6,17.3-5.8c1.1,0.9,1.8,2,1.6,3.9c-0.9,4-4.5,4.9-7.9,5.8c-3.2,0.9-6.5,3.9-10,0.7
		C1025.3,327.1,1025.2,325.4,1025.6,323.7z M1005.5,350.9c23.4-8.4,46.8-16.8,70.2-25.3c5.7-2.1,6,2.5,7.1,5.4
		c7.6,20.5,14.9,41,22.3,61.6c3,8.3,5.9,16.7,8.9,25c0.5,1.3,1,2.6,1.3,3.5c0.2,3-1.9,3.4-3.7,4.1c-22.8,8.3-45.7,16.6-68.5,25.1
		c-4.8,1.8-7.3,0.1-8.9-4.3c-10.6-29.4-21.1-58.8-31.9-88.1C1001,354.1,1001.9,352.2,1005.5,350.9z"/>
	<path class="st0" d="M2026.9,37.2c5.9,16.4,11.9,32.8,18,49.1c3.3,8.9,8,12,15.6,9.3c26.6-9.4,53.1-19.1,79.6-28.7
		c4.7-1.7,7-5.1,7.4-11.2c-0.7-2.2-1.5-5.4-2.6-8.5c-9.8-27.3-19.7-54.7-29.6-82c-6-16.6-12.1-33.3-18.3-49.9
		c-3.5-9.5-8.2-12-16.2-9.2c-24.7,8.9-49.5,17.8-74.2,26.7c-12.1,4.4-14.2,8.5-9.9,20.8C2006.7-18.5,2016.8,9.4,2026.9,37.2z
		 M2103.9,64.5c-1.6,7-8.4,5.9-12.7,7.9c-3.6-0.1-7-0.9-6.2-4.4c1.7-6.9,8.7-6.9,14-8.4C2102,58.6,2104.6,61.3,2103.9,64.5z
		 M2052.3-70.5c2.4,0.2,5.7,1.2,4.6,4.7c-2,6.8-9.1,6.3-14.3,7.9c-2.8,0.9-4.5-1.4-4.7-4.4C2037.8-66.1,2045.6-70.7,2052.3-70.5z
		 M2018.6-36.7c23.1-8.4,46.3-16.6,69.4-25.1c5.7-2.1,6.1,2.2,7.2,5.2c4.7,12.4,9.2,24.9,13.7,37.4c5.9,16.4,11.7,32.8,17.6,49.2
		c0.5,1.3,1,2.6,1.4,3.5c0.3,3-1.6,3.5-3.5,4.2c-23.1,8.4-46.2,16.8-69.3,25.3c-4.6,1.7-6.8-0.4-8.2-4.3
		c-10.7-29.6-21.4-59.3-32.2-88.8C2013.1-34.4,2015.6-35.6,2018.6-36.7z"/>
</g>
</svg>
