<?xml version="1.0" encoding="utf-8"?>
<!-- Generator: Adobe Illustrator 15.1.0, SVG Export Plug-In . SVG Version: 6.00 Build 0)  -->
<!DOCTYPE svg PUBLIC "-//W3C//DTD SVG 1.1//EN" "http://www.w3.org/Graphics/SVG/1.1/DTD/svg11.dtd">
<svg version="1.1" id="Layer_1" xmlns="http://www.w3.org/2000/svg" xmlns:xlink="http://www.w3.org/1999/xlink" x="0px" y="0px"
	 width="338.04px" height="61.228px" viewBox="0 0 338.04 61.228" enable-background="new 0 0 338.04 61.228" xml:space="preserve">
<g>
	<g>
		<g>
			<path fill="#FFFFFF" d="M13.656,27.812c4.572,0.806,6.682,4.429,6.226,7.769c-0.423,2.813-1.229,4.888-3.445,6.646
				c-2.286,1.725-5.695,1.582-8.438,1.549c-2.883-0.071-7.208-0.918-7.208-0.918l1.475-7.277c0,0,3.729,0.564,6.503,0.74
				c1.41,0.07,3.025,0.387,3.306-0.949c0.106-0.494,0.146-1.443-1.828-1.689c0,0-0.068-0.034-2.285-0.318
				c-2.18-0.317-3.235-0.561-3.235-0.561C1.144,32.065-0.3,28.48,0.051,25.771c0.387-2.848,1.162-4.921,3.409-6.645
				c2.251-1.757,4.994-1.897,7.666-1.792c2.637,0.141,7.526,0.982,7.526,0.982L17.07,25.35c0,0-4.256-0.528-6.048-0.67
				c-2.253-0.138-3.06-0.315-3.341,0.704c-0.212,0.774,0.281,1.302,0.737,1.477c0,0,0.387,0.175,2.814,0.529
				C12.569,27.635,13.656,27.812,13.656,27.812z"/>
			<path fill="#FFFFFF" d="M42.631,39.871c-2.568,2.53-5.626,3.834-9.25,3.834c-3.623,0-6.681-1.304-9.245-3.834
				c-2.534-2.567-3.833-5.662-3.833-9.247c0-3.624,1.299-6.716,3.833-9.248c2.563-2.567,5.622-3.869,9.245-3.869
				c3.624,0,6.682,1.302,9.25,3.869c2.562,2.531,3.865,5.624,3.865,9.248C46.496,34.208,45.194,37.303,42.631,39.871z
				 M37.251,26.756c-1.087-1.09-2.354-1.617-3.87-1.617c-1.547,0-2.813,0.527-3.9,1.617c-1.057,1.056-1.583,2.357-1.583,3.868
				c0,1.512,0.526,2.811,1.583,3.903c1.086,1.054,2.353,1.582,3.9,1.582c1.515,0,2.782-0.528,3.87-1.582
				c1.127-1.092,1.653-2.391,1.653-3.903C38.904,29.113,38.378,27.812,37.251,26.756z"/>
			<path fill="#FFFFFF" d="M73.042,18.354v24.397h-7.557V30.941l-5.17,6.855l-5.274-6.961v11.916h-7.558V18.354h7.558v0.033h0.037
				l5.204,6.821l5.204-6.785v-0.069H73.042z"/>
			<path fill="#FFFFFF" d="M95.897,39.871c-2.566,2.53-5.625,3.834-9.249,3.834c-3.621,0-6.678-1.304-9.246-3.834
				c-2.534-2.567-3.833-5.662-3.833-9.247c0-3.624,1.3-6.716,3.833-9.248c2.568-2.567,5.625-3.869,9.246-3.869
				c3.624,0,6.682,1.302,9.249,3.869c2.566,2.531,3.868,5.624,3.868,9.248C99.765,34.208,98.464,37.303,95.897,39.871z
				 M90.518,26.756c-1.091-1.09-2.356-1.617-3.869-1.617c-1.543,0-2.811,0.527-3.904,1.617c-1.052,1.056-1.582,2.357-1.582,3.868
				c0,1.512,0.53,2.811,1.582,3.903c1.093,1.054,2.361,1.582,3.904,1.582c1.513,0,2.778-0.528,3.869-1.582
				c1.124-1.092,1.651-2.391,1.651-3.903C92.169,29.113,91.642,27.812,90.518,26.756z"/>
			<path fill="#FFFFFF" d="M114.003,27.812c4.571,0.806,6.682,4.429,6.225,7.769c-0.422,2.813-1.231,4.888-3.448,6.646
				c-2.284,1.725-5.694,1.582-8.437,1.549c-2.883-0.071-7.21-0.918-7.21-0.918l1.478-7.277c0,0,3.728,0.564,6.504,0.74
				c1.407,0.07,3.024,0.387,3.306-0.949c0.104-0.494,0.141-1.443-1.829-1.689c0,0-0.07-0.034-2.285-0.318
				c-2.181-0.317-3.234-0.561-3.234-0.561c-3.586-0.738-5.026-4.323-4.678-7.033c0.388-2.848,1.164-4.921,3.412-6.645
				c2.25-1.757,4.994-1.897,7.665-1.792c2.637,0.141,7.524,0.982,7.524,0.982l-1.582,7.034c0,0-4.255-0.528-6.048-0.67
				c-2.251-0.138-3.06-0.315-3.342,0.704c-0.21,0.774,0.282,1.302,0.739,1.477c0,0,0.387,0.175,2.813,0.529
				C112.914,27.635,114.003,27.812,114.003,27.812z"/>
		</g>
		<g>
			<path fill="#FFFFFF" d="M140.577,25.845h-6.366v16.914h-7.558V25.845h-6.363v-7.489h20.288V25.845z"/>
			<path fill="#FFFFFF" d="M162.516,39.875c-2.565,2.533-5.628,3.83-9.249,3.83c-3.618,0-6.676-1.297-9.247-3.83
				c-2.529-2.567-3.831-5.662-3.831-9.249c0-3.62,1.301-6.715,3.831-9.248c2.571-2.566,5.629-3.867,9.247-3.867
				c3.621,0,6.683,1.3,9.249,3.867c2.566,2.532,3.87,5.627,3.87,9.248C166.386,34.212,165.083,37.307,162.516,39.875z
				 M157.138,26.757c-1.09-1.088-2.358-1.616-3.871-1.616c-1.545,0-2.811,0.528-3.896,1.616c-1.059,1.059-1.587,2.357-1.587,3.869
				c0,1.512,0.529,2.813,1.587,3.904c1.085,1.055,2.352,1.583,3.896,1.583c1.513,0,2.781-0.528,3.871-1.583
				c1.123-1.091,1.651-2.392,1.651-3.904C158.789,29.114,158.261,27.816,157.138,26.757z"/>
			<path fill="#FFFFFF" d="M186.007,39.208c-2.428,2.39-5.275,3.552-8.618,3.552h-9.982V18.321h9.982
				c3.343,0,6.19,1.195,8.618,3.585c2.39,2.39,3.586,5.276,3.586,8.615C189.593,33.899,188.397,36.78,186.007,39.208z
				 M182.033,30.591c0-1.196-0.419-2.285-1.301-3.234c-0.812-0.949-1.973-1.441-3.343-1.441h-2.423v9.28h0.773
				c1.758,0.037,3.482,0.07,4.922-1.37C181.648,32.875,182.033,31.716,182.033,30.591z"/>
			<path fill="#FFFFFF" d="M212.453,39.875c-2.571,2.533-5.628,3.83-9.253,3.83c-3.618,0-6.679-1.297-9.246-3.83
				c-2.531-2.567-3.83-5.662-3.83-9.249c0-3.62,1.299-6.715,3.83-9.248c2.567-2.566,5.628-3.867,9.246-3.867
				c3.625,0,6.682,1.3,9.253,3.867c2.562,2.532,3.864,5.627,3.864,9.248C216.317,34.212,215.014,37.307,212.453,39.875z
				 M207.071,26.757c-1.095-1.088-2.357-1.616-3.871-1.616c-1.544,0-2.812,0.528-3.905,1.616c-1.05,1.059-1.577,2.357-1.577,3.869
				c0,1.512,0.527,2.813,1.577,3.904c1.093,1.055,2.361,1.583,3.905,1.583c1.514,0,2.776-0.528,3.871-1.583
				c1.125-1.091,1.652-2.392,1.652-3.904C208.723,29.114,208.196,27.816,207.071,26.757z"/>
			<path fill="#FFFFFF" d="M230.594,27.816c4.568,0.807,6.68,4.429,6.222,7.769c-0.42,2.81-1.231,4.888-3.447,6.646
				c-2.283,1.722-5.693,1.583-8.435,1.546c-2.885-0.071-7.209-0.912-7.209-0.912l1.477-7.279c0,0,3.729,0.561,6.506,0.736
				c1.405,0.072,3.02,0.388,3.304-0.946c0.106-0.493,0.143-1.442-1.827-1.688c0,0-0.071-0.034-2.287-0.318
				c-2.179-0.313-3.236-0.561-3.236-0.561c-3.584-0.738-5.024-4.325-4.672-7.033c0.386-2.848,1.159-4.922,3.408-6.645
				c2.25-1.758,4.993-1.898,7.667-1.793c2.635,0.14,7.521,0.984,7.521,0.984l-1.58,7.033c0,0-4.257-0.528-6.047-0.669
				c-2.25-0.14-3.061-0.317-3.341,0.701c-0.211,0.776,0.28,1.303,0.74,1.479c0,0,0.387,0.175,2.813,0.528
				C229.504,27.641,230.594,27.816,230.594,27.816z"/>
		</g>
	</g>
	<g>
		<path fill="#FFFFFF" d="M288.737,1.58l-0.119-0.584l-8.684,1.308l0.098,0.621c0.002,0.033,0.491,3.282,0.614,5.667
			c0.008,0.167,0.014,0.335,0.026,0.499c0.082,1.36-0.006,1.652-0.532,1.737c-0.082,0.01-0.155,0.02-0.219,0.02
			c-0.18,0-0.617,0-0.751-1.126L279.155,9.6l-0.013-0.022c-0.024-0.146-0.092-0.593-0.248-1.869l-0.004-0.013
			c-0.266-1.852-0.49-2.793-0.518-2.907c-0.329-1.518-1.28-2.775-2.753-3.646C274.375,0.407,272.851,0,271.315,0
			c-0.235,0-0.477,0.011-0.704,0.031c-2.917,0.274-5.264,0.894-7.264,3.037c-1.991,2.095-2.216,4.668-2.156,7.137v0.01
			c0.09,2.335,0.83,6.542,0.861,6.721l0.11,0.614l8.424-1.434l-0.071-0.59c-0.004-0.039-0.452-3.748-0.561-5.293
			c-0.004-0.203-0.017-0.393-0.026-0.572c-0.041-0.675-0.071-1.212,0.002-1.48c0.024-0.096,0.039-0.158,0.315-0.215
			c0.073-0.014,0.143-0.021,0.208-0.021c0.346,0,0.528,0.219,0.579,0.332L271.02,8.27l0.023,0.032
			c0.036,0.104,0.186,0.622,0.429,2.308l0.005,0.027c0.223,1.159,0.38,2.114,0.382,2.125v0.009c0.349,1.916,1.332,3.518,2.842,4.638
			c1.358,1.008,3.083,1.562,4.858,1.562c0.265,0,0.534-0.012,0.796-0.039h0.007c1.641-0.175,2.908-0.452,3.988-0.875
			c1.244-0.491,2.312-1.205,3.26-2.184l0.01-0.01c1.882-2.053,1.9-5.036,1.915-7.439c0-0.122,0.002-0.241,0.002-0.36V8.059V8.056
			C289.522,5.489,288.767,1.738,288.737,1.58z"/>
		<path fill="#FFFFFF" d="M238.624,9.658v27.017c0,2.56-0.834,4.64-2.547,6.353l-0.01,0.012c-1.641,1.704-3.789,2.604-6.213,2.604
			h-0.626v15.584h0.626c3.365,0,6.526-0.607,9.396-1.802c2.867-1.188,5.527-3.003,7.908-5.381l0.004-0.002
			c2.373-2.412,4.174-5.088,5.348-7.97c1.169-2.862,1.764-6.023,1.764-9.398V9.658H238.624z"/>
		<path fill="#FFFFFF" d="M286.166,19.118l-0.624,0.274c-1.788,0.784-3.662,1.097-5.095,1.28c-0.453,0.054-0.892,0.079-1.333,0.079
			c-3.03,0-5.763-1.129-7.694-3.188l-0.239-0.251l-8.999,1.74l-12.557,36.17l15.905,0.067l2.044-5.882h13.24l2.049,5.818h15.841
			L286.166,19.118z M270.149,38.086l4.014-11.55l4.018,11.55H270.149z"/>
		<path fill="#FFFFFF" d="M331.306,48.606c-4.472,4.408-9.799,6.673-16.104,6.673s-11.632-2.265-16.101-6.673
			c-4.408-4.468-6.673-9.856-6.673-16.102c0-6.305,2.265-11.693,6.673-16.1c4.469-4.47,9.796-6.735,16.101-6.735
			s11.632,2.266,16.104,6.735c4.466,4.407,6.733,9.794,6.733,16.1C338.04,38.75,335.772,44.138,331.306,48.606z M321.937,25.771
			c-1.898-1.898-4.102-2.815-6.734-2.815c-2.694,0-4.897,0.917-6.794,2.815c-1.839,1.838-2.756,4.102-2.756,6.734
			c0,2.633,0.917,4.899,2.756,6.798c1.896,1.835,4.1,2.755,6.794,2.755c2.633,0,4.836-0.92,6.734-2.755
			c1.958-1.898,2.878-4.165,2.878-6.798C324.815,29.872,323.895,27.608,321.937,25.771z"/>
	</g>
</g>
</svg>
